<?xml version="1.0" encoding="utf-8"?>
<!-- Generator: Adobe Illustrator 23.1.0, SVG Export Plug-In . SVG Version: 6.00 Build 0)  -->
<svg version="1.1" id="Layer_1" xmlns="http://www.w3.org/2000/svg" xmlns:xlink="http://www.w3.org/1999/xlink" x="0px" y="0px"
	 viewBox="0 0 255 60" style="enable-background:new 0 0 255 60;" xml:space="preserve">
<style type="text/css">
	.st0{fill:#003B71;}
</style>
<g id="XMLID_2203_">
	<polygon id="XMLID_2546_" class="st0" points="24.1,20.1 24.5,21.4 25.9,21.4 24.8,22.2 25.2,23.5 24.1,22.7 23,23.5 23.4,22.2 
		22.3,21.4 23.7,21.4 	"/>
	<path id="XMLID_2535_" class="st0" d="M22.7,30.9L22.7,30.9l-0.3,0l-1,1.4l0.6,0.3l0.9-1.4L22.8,31l-0.1,0l0.4-0.6v-5.6
		c0.2,0,0.4-0.2,0.4-0.5c0-0.3-0.2-0.5-0.5-0.5c-0.3,0-0.5,0.2-0.5,0.5c0,0.2,0.2,0.4,0.4,0.5v5.5L22.7,30.9z"/>
	<path id="XMLID_2534_" class="st0" d="M11.7,25.5l2.5-7.3c0,0,0.1,0,0.1,0c0.3,0,0.5-0.2,0.5-0.5c0-0.3-0.2-0.5-0.5-0.5
		c-0.3,0-0.5,0.2-0.5,0.5c0,0.2,0.1,0.3,0.2,0.4l-2.5,7.3L6.9,32C6.8,32,6.8,32,6.7,32c-0.3,0-0.5,0.2-0.5,0.5s0.2,0.5,0.5,0.5
		c0.3,0,0.5-0.2,0.5-0.5c0-0.1-0.1-0.2-0.1-0.3L11.7,25.5L11.7,25.5z"/>
	<path id="XMLID_2533_" class="st0" d="M12.1,27.2l-0.1-0.1l-2.1,3.2L8.4,32c-0.1,0-0.2-0.1-0.2-0.1c-0.3,0-0.5,0.2-0.5,0.5
		c0,0.3,0.2,0.5,0.5,0.5c0.3,0,0.5-0.2,0.5-0.5c0-0.1,0-0.2-0.1-0.3l1.5-1.7L12.1,27.2z"/>
	<path id="XMLID_2532_" class="st0" d="M7.4,39.1l-0.9,2.5L6.7,44l2.3,2.4l1.9,1.2h3.8c0,0.2,0.2,0.4,0.5,0.4c0.3,0,0.5-0.2,0.5-0.5
		c0-0.3-0.2-0.5-0.5-0.5c-0.2,0-0.4,0.2-0.5,0.4H11l-1.9-1.1l-2.3-2.3l-0.3-2.4l0.9-2.4l2.6-3.2l0.5-2.9l0.1,0l0.2-0.1l0.3-1.6
		l-0.7-0.1l-0.3,1.6l0.1,0.2l0.1,0L10,35.9L7.4,39.1L7.4,39.1z"/>
	<path id="XMLID_2531_" class="st0" d="M7.4,39.1L7.4,39.1l-1,2.4L6.7,44L9,46.4l1.9,1.2h3.8v-0.1l-0.1,0c0,0.2,0.3,0.4,0.5,0.4
		c0.3,0,0.5-0.2,0.5-0.5c0-0.3-0.2-0.5-0.5-0.5c-0.3,0-0.5,0.2-0.5,0.4l0.1,0v-0.1H11l-1.8-1.1l-2.3-2.3l-0.2-2.3l0.9-2.4l2.6-3.2
		l0.5-2.9l0,0l0,0L11,33l0.3-1.6l-0.8-0.1l-0.3,1.6l0.2,0.2l0.1,0l-0.5,2.8L7.4,39.1L7.4,39.1L7.4,39.1L7.4,39.1L7.4,39.1L7.4,39.1
		L7.4,39.1l2.6-3.2l0.5-3l-0.1,0l-0.1-0.1l0.3-1.5l0.6,0.1l-0.3,1.5L10.7,33l-0.1,0l-0.1,0l-0.5,3L7.4,39.1l-0.8,2.5l0.3,2.4
		l2.3,2.3l1.9,1.1h3.8l0,0c0-0.2,0.2-0.3,0.4-0.3c0.2,0,0.4,0.2,0.4,0.4c0,0.2-0.2,0.4-0.4,0.4c-0.2,0-0.4-0.1-0.4-0.3l0,0H11
		l-1.9-1.1L6.8,44l-0.3-2.4L7.4,39.1L7.4,39.1L7.4,39.1L7.4,39.1z"/>
	<polygon id="XMLID_2530_" class="st0" points="17,40 17,37.1 13.7,34.2 13.6,34.3 16.8,37.2 16.8,40 	"/>
	<path id="XMLID_2526_" class="st0" d="M16,20C15.9,20,15.9,20,16,20c-0.4,0-0.7,0.3-0.7,0.6c0,0.3,0.3,0.6,0.6,0.6
		c0.3,0,0.6-0.3,0.6-0.6c0-0.2-0.1-0.4-0.4-0.5l1.3-6.1l4.3-2.1c0.1,0.2,0.3,0.3,0.5,0.3c0.3,0,0.6-0.3,0.6-0.6
		c0-0.3-0.3-0.6-0.6-0.6c-0.3,0-0.6,0.3-0.6,0.6c0,0.1,0,0.1,0,0.2l-4.3,2.1L16,20z M16.2,20.5c0,0.2-0.2,0.4-0.4,0.4
		c-0.2,0-0.4-0.2-0.4-0.4c0-0.2,0.2-0.4,0.4-0.4C16.1,20.2,16.2,20.3,16.2,20.5z M22.2,11.1c0.2,0,0.4,0.2,0.4,0.4
		c0,0.2-0.2,0.4-0.4,0.4c-0.2,0-0.4-0.2-0.4-0.4C21.8,11.3,22,11.1,22.2,11.1z"/>
	<path id="XMLID_2525_" class="st0" d="M21.9,14L21.9,14c0.3,0,0.5-0.2,0.5-0.5c0-0.3-0.2-0.5-0.5-0.5c-0.3,0-0.5,0.2-0.5,0.5
		c0,0.2,0.1,0.4,0.3,0.4l-0.6,2.6l-3,2.3c-0.1-0.1-0.2-0.1-0.3-0.1c-0.3,0-0.5,0.2-0.5,0.5s0.2,0.5,0.5,0.5c0.3,0,0.5-0.2,0.5-0.5
		c0-0.1,0-0.2-0.1-0.2l3-2.3L21.9,14z"/>
	<path id="XMLID_2524_" class="st0" d="M24.7,27.2c0-0.3-0.2-0.5-0.5-0.5c-0.3,0-0.5,0.2-0.5,0.5c0,0.2,0.2,0.4,0.4,0.5v3.7h-0.1
		l-0.2,0.2v1.6h0.7v-1.6l-0.2-0.2h-0.1v-3.7C24.5,27.6,24.7,27.4,24.7,27.2z"/>
	<path id="XMLID_2521_" class="st0" d="M23.2,19.1c-0.2,0-0.4,0.1-0.5,0.3l-1.1-1l-1.3,1.6v1.7l1.2,1c0,0,0,0.1,0,0.2
		c0,0.3,0.2,0.5,0.5,0.5c0.3,0,0.5-0.2,0.5-0.5s-0.2-0.5-0.5-0.5c-0.1,0-0.3,0.1-0.4,0.2l-1.1-1v-1.6l1.2-1.4l1,0.9c0,0,0,0.1,0,0.1
		c0,0.3,0.3,0.6,0.6,0.6c0.3,0,0.6-0.3,0.6-0.6C23.7,19.4,23.5,19.1,23.2,19.1z M23.2,20.1c-0.2,0-0.4-0.2-0.4-0.4
		c0-0.2,0.2-0.4,0.4-0.4c0.2,0,0.4,0.2,0.4,0.4C23.5,19.9,23.3,20.1,23.2,20.1z"/>
	<path id="XMLID_2520_" class="st0" d="M14.3,22.6c-0.3,0-0.5,0.2-0.5,0.5c0,0.3,0.2,0.5,0.5,0.5c0.2,0,0.4-0.2,0.5-0.4h1.8l1.4-1.9
		c0.1,0.1,0.2,0.1,0.3,0.1c0,0,0.1,0,0.1,0l0.7,1.9L21,24c0,0.1,0,0.1,0,0.2c0,0.3,0.2,0.5,0.5,0.5c0.3,0,0.5-0.2,0.5-0.5
		c0-0.3-0.2-0.5-0.5-0.5c-0.1,0-0.3,0.1-0.4,0.2l-1.8-0.8l-0.6-1.8c0.1-0.1,0.2-0.2,0.2-0.4c0-0.3-0.2-0.5-0.5-0.5
		c-0.3,0-0.5,0.2-0.5,0.5c0,0.1,0,0.1,0.1,0.2L16.5,23h-1.7C14.7,22.8,14.5,22.6,14.3,22.6z"/>
	<path id="XMLID_2517_" class="st0" d="M14.4,24.6c0-0.3-0.3-0.6-0.6-0.6c-0.3,0-0.6,0.3-0.6,0.6c0,0.3,0.3,0.6,0.6,0.6
		c0,0,0.1,0,0.1,0l0.6,1.7l1.7,2.2l2.8,1.4v0.8l-0.7,1.3c-0.1,0-0.1,0-0.2,0c-0.3,0-0.5,0.2-0.5,0.5c0,0.3,0.2,0.5,0.5,0.5
		c0.3,0,0.5-0.2,0.5-0.5c0-0.1-0.1-0.3-0.2-0.3l0.7-1.3v-0.9l-2.8-1.4l-1.6-2.1l-0.5-1.6C14.3,25,14.4,24.8,14.4,24.6z M13.8,24.9
		c-0.2,0-0.4-0.2-0.4-0.4c0-0.2,0.2-0.4,0.4-0.4c0.2,0,0.4,0.2,0.4,0.4C14.2,24.8,14,24.9,13.8,24.9z"/>
	<path id="XMLID_2516_" class="st0" d="M16.3,33.4c0,0.3,0.2,0.5,0.5,0.5c0.3,0,0.5-0.2,0.5-0.5s-0.2-0.5-0.5-0.5
		c-0.2,0-0.3,0.1-0.4,0.2l-3.6-1.8l0.5-3.8c0,0,0.1,0,0.1,0c0.3,0,0.5-0.2,0.5-0.5c0-0.3-0.2-0.5-0.5-0.5c-0.3,0-0.5,0.2-0.5,0.5
		c0,0.2,0.1,0.3,0.2,0.4l-0.6,4l3.7,1.8C16.3,33.3,16.3,33.3,16.3,33.4z"/>
	<path id="XMLID_2515_" class="st0" d="M14.9,15.6c0.3,0,0.5-0.2,0.5-0.5c0-0.3-0.2-0.5-0.5-0.5c-0.1,0-0.3,0.1-0.4,0.2l-2.2-0.7
		l-2.6,0.4l-2.6,1.7v1.5l2,2C9,19.8,9,19.9,9,20c0,0.3,0.2,0.5,0.5,0.5c0.3,0,0.5-0.2,0.5-0.5s-0.2-0.5-0.5-0.5
		c-0.1,0-0.2,0-0.2,0.1l-2-2v-1.4l2.6-1.6l2.6-0.4l2.2,0.7c0,0,0,0.1,0,0.2C14.5,15.4,14.7,15.6,14.9,15.6z"/>
	<path id="XMLID_2514_" class="st0" d="M14.9,15.6v0.1c0.3,0,0.6-0.3,0.6-0.6c0-0.3-0.3-0.6-0.6-0.6c-0.2,0-0.3,0.1-0.4,0.2l0.1,0.1
		l0-0.1L12.4,14l-2.7,0.4l-2.7,1.7v1.6l2,2.1l0.1-0.1L9,19.7c-0.1,0.1-0.1,0.2-0.1,0.4c0,0.3,0.3,0.6,0.6,0.6c0.3,0,0.6-0.3,0.6-0.6
		c0-0.3-0.3-0.6-0.6-0.6c-0.1,0-0.2,0-0.3,0.1l0.1,0.1l0.1-0.1l-1.9-2v-1.2l2.5-1.6l2.5-0.4l2.1,0.7l0-0.1l-0.1,0c0,0.1,0,0.1,0,0.2
		c0,0.3,0.3,0.6,0.6,0.6V15.6v-0.1c-0.2,0-0.4-0.2-0.4-0.4c0,0,0-0.1,0-0.1l0-0.1l-2.3-0.7l-2.6,0.4l-2.6,1.7v1.5l2.1,2.1l0.1,0
		c0.1,0,0.1,0,0.2,0c0.2,0,0.4,0.2,0.4,0.4c0,0.2-0.2,0.4-0.4,0.4c-0.2,0-0.4-0.2-0.4-0.4c0-0.1,0-0.2,0.1-0.2l0.1-0.1l-2.1-2.1
		v-1.4l2.6-1.7l2.6-0.4l2.3,0.7l0-0.1c0.1-0.1,0.2-0.1,0.3-0.1c0.2,0,0.4,0.2,0.4,0.4c0,0.2-0.2,0.4-0.4,0.4V15.6z"/>
	<path id="XMLID_2513_" class="st0" d="M4.9,22.2c0,0.3,0.2,0.5,0.5,0.5c0.2,0,0.3-0.1,0.4-0.2l0.7,0.3l1.7,0l2.5-1.1l2.1-3.7
		c0,0,0.1,0,0.2,0c0.3,0,0.5-0.2,0.5-0.5c0-0.3-0.2-0.5-0.5-0.5c-0.3,0-0.5,0.2-0.5,0.5c0,0.1,0.1,0.3,0.2,0.4l-2,3.6l-2.5,1l-1.6,0
		l-0.7-0.3c0,0,0,0,0-0.1c0-0.3-0.2-0.5-0.5-0.5C5.1,21.8,4.9,22,4.9,22.2z"/>
	<path id="XMLID_2512_" class="st0" d="M10.4,46.1c0.3,0,0.5-0.2,0.5-0.5c0-0.3-0.2-0.5-0.5-0.5c-0.1,0-0.2,0-0.3,0.1L9,44.2L8.6,42
		l0.8-2.1l1.8-2c0.1,0,0.2,0.1,0.3,0.1c0.3,0,0.5-0.2,0.5-0.5c0-0.3-0.2-0.5-0.5-0.5c-0.3,0-0.5,0.2-0.5,0.5c0,0.1,0,0.2,0.1,0.3
		l-1.9,2L8.4,42l0.5,2.3l1.1,1.1c0,0.1-0.1,0.2-0.1,0.2C10,45.9,10.2,46.1,10.4,46.1z"/>
	<path id="XMLID_2511_" class="st0" d="M10.4,46.1L10.4,46.1c0.3,0.1,0.5-0.2,0.5-0.5c0-0.3-0.2-0.5-0.5-0.5c-0.1,0-0.2,0-0.3,0.1
		l0,0l0,0l-1.1-1.1L8.6,42l0.7-2.1l1.8-2l0,0l0,0c0.1,0.1,0.2,0.1,0.3,0.1c0.3,0,0.5-0.2,0.5-0.5c0-0.3-0.2-0.5-0.5-0.5
		c-0.3,0-0.5,0.2-0.5,0.5c0,0.1,0,0.2,0.1,0.3l0,0l0,0l-1.9,2L8.4,42l0.5,2.3l1.2,1.1l0,0l0,0c0,0.1-0.1,0.2-0.1,0.3
		C9.9,45.9,10.1,46.1,10.4,46.1L10.4,46.1L10.4,46.1C10.2,46,10,45.8,10,45.6c0-0.1,0-0.1,0.1-0.2l0,0l-1.2-1.1L8.5,42l0.8-2.2
		l1.9-2l0,0c-0.1-0.1-0.1-0.2-0.1-0.2c0-0.2,0.2-0.4,0.4-0.4c0.2,0,0.4,0.2,0.4,0.4c0,0.2-0.2,0.4-0.4,0.4c-0.1,0-0.2,0-0.2-0.1l0,0
		l-1.9,2L8.5,42L9,44.2l1.2,1.1l0,0c0.1-0.1,0.2-0.1,0.3-0.1c0.2,0,0.4,0.2,0.4,0.4C10.8,45.8,10.7,46,10.4,46.1L10.4,46.1z"/>
	<path id="XMLID_2510_" class="st0" d="M12.4,46.1c0.3,0,0.5-0.2,0.5-0.5c0-0.3-0.2-0.5-0.5-0.5c-0.1,0-0.3,0.1-0.4,0.2L11,44.5
		l-0.5-2.1l0.5-2.3l1.7-2.2v-3.4h0.1l0.2-0.2v-1.6h-0.7v1.6l0.2,0.2h0.1v3.3L10.9,40l-0.5,2.4l0.5,2.2l1.2,0.9c0,0.1,0,0.1,0,0.2
		C12,45.9,12.2,46.1,12.4,46.1z"/>
	<path id="XMLID_2509_" class="st0" d="M12.4,46.1L12.4,46.1c0.3,0.1,0.5-0.2,0.5-0.5c0-0.3-0.2-0.5-0.5-0.5c-0.2,0-0.3,0.1-0.4,0.2
		l0,0l0,0L11,44.4l-0.4-2.1l0.5-2.3l1.7-2.2v-3.3h0h0l0.2-0.2v-1.7h-0.8v1.7l0.2,0.2h0.1v3.3L10.8,40l-0.5,2.4l0.5,2.2l1.2,0.9l0,0
		l-0.1,0c0,0.1,0,0.1,0,0.2C11.9,45.9,12.2,46.1,12.4,46.1L12.4,46.1L12.4,46.1C12.2,46,12,45.8,12,45.6c0-0.1,0-0.1,0-0.2l0,0
		l-1.2-0.9l-0.5-2.2l0.5-2.3l1.7-2.2v-3.4h-0.1l-0.1-0.1v-1.5H13l0,1.5l-0.1,0.1h-0.1h-0.1v3.4L11,40.1l-0.5,2.3l0.5,2.1l1.2,0.9
		l0,0c0.1-0.1,0.2-0.1,0.3-0.1c0.2,0,0.4,0.2,0.4,0.4C12.9,45.8,12.7,46,12.4,46.1L12.4,46.1z"/>
	<path id="XMLID_2508_" class="st0" d="M13,39.6c0.3,0,0.5-0.2,0.5-0.5c0-0.3-0.2-0.5-0.5-0.5c-0.3,0-0.5,0.2-0.5,0.5
		c0,0.2,0.1,0.3,0.2,0.4l-0.5,1.1l0.1,3l1.8,1.8c0,0.1-0.1,0.2-0.1,0.2c0,0.3,0.2,0.5,0.5,0.5c0.3,0,0.5-0.2,0.5-0.5
		c0-0.3-0.2-0.5-0.5-0.5c-0.1,0-0.2,0-0.3,0.1l-1.7-1.7l-0.1-2.9l0.5-1C12.9,39.6,13,39.6,13,39.6z"/>
	<path id="XMLID_2505_" class="st0" d="M17.1,49.4c0.3,0,0.5-0.2,0.5-0.5c0-0.3-0.2-0.5-0.5-0.5c-0.2,0-0.4,0.2-0.5,0.4h-5.7
		l-2.5-0.5L6,46.4l-1-2.8l0.3-2.7l1.4-2.5l2-3.3l0.1,0.1L9,35.1l0.8-1.4l-0.6-0.3l-0.8,1.4L8.4,35l0.1,0l-2,3.3l-1.4,2.4l-0.9-0.5
		l-0.4-1.9v-1.5l0.9-1.5c0.1,0,0.1,0,0.2,0c0.3,0,0.5-0.2,0.5-0.5s-0.2-0.5-0.5-0.5c-0.3,0-0.5,0.2-0.5,0.5c0,0.1,0.1,0.3,0.2,0.4
		l-0.9,1.5v1.6L4,40.3l1,0.6l-0.2,2.5L2.9,42l-0.8-1.9l0-1.7l0.5-2.8l1.6-3.2l4-4.6l2.6-4.1c0,0,0.1,0,0.1,0c0.3,0,0.6-0.3,0.6-0.6
		c0-0.3-0.3-0.6-0.6-0.6c-0.3,0-0.6,0.3-0.6,0.6c0,0.2,0.1,0.4,0.3,0.5l-2.6,4l-4,4.6l0,0l-1.6,3.1l-0.7-2.1l-0.1-2.6L2.6,29
		l0.8-0.6c0.1,0.1,0.2,0.1,0.3,0.1c0.3,0,0.5-0.2,0.5-0.5c0-0.3-0.2-0.5-0.5-0.5c-0.3,0-0.5,0.2-0.5,0.5c0,0.1,0,0.1,0,0.2l-0.9,0.6
		l-0.9,1.8l0.1,2.6l0.8,2.2L2,38.1l-1.8-4.7v-2.6l1.1-2.4l2-1.9l3.5-1c0.1,0.2,0.2,0.3,0.4,0.3c0.3,0,0.5-0.2,0.5-0.5
		c0-0.3-0.2-0.5-0.5-0.5c-0.3,0-0.5,0.2-0.5,0.5c0,0,0,0,0,0.1l-1.3,0.4l-0.2-1.3L4,22.8c0.1-0.1,0.1-0.2,0.1-0.3
		c0-0.3-0.2-0.5-0.5-0.5c-0.3,0-0.5,0.2-0.5,0.5S3.4,23,3.6,23c0.1,0,0.2,0,0.2-0.1l1.2,1.5l0.2,1.3l-2,0.6l0,0l-2,1.9l-1.1,2.5v2.7
		l1.9,5l0,1.8l0.8,2l2.1,1.5l1,2.9l2.5,2.1l2.5,0.5l0,0h5.7C16.6,49.2,16.8,49.4,17.1,49.4z M11,22.8c0.2,0,0.4,0.2,0.4,0.4
		c0,0.2-0.2,0.4-0.4,0.4c-0.2,0-0.4-0.2-0.4-0.4C10.6,23,10.8,22.8,11,22.8z"/>
	<path id="XMLID_2495_" class="st0" d="M17.1,49.4L17.1,49.4c0.3,0.1,0.5-0.2,0.5-0.5c0-0.3-0.2-0.5-0.5-0.5c-0.3,0-0.5,0.2-0.5,0.4
		l0.1,0v-0.1h-5.7l-2.5-0.5l-2.4-2l-1-2.8l0.2-2.6l1.4-2.4l2-3.2l0,0l0,0L9,35.2l0.8-1.4l-0.7-0.4l-0.8,1.4L8.4,35l0,0l-2,3.2
		l-1.4,2.4l-0.8-0.5l-0.4-1.8v-1.5l0.9-1.4l0,0l0,0.1c0.1,0,0.1,0,0.2,0c0.3,0,0.5-0.2,0.5-0.5c0-0.3-0.2-0.5-0.5-0.5
		c-0.3,0-0.5,0.2-0.5,0.5c0,0.2,0.1,0.3,0.2,0.4l0,0l0,0l-0.9,1.5v1.6l0.4,2l1,0.6l-0.2,2.4L2.9,42l-0.7-1.9l0-1.7l0.5-2.7l1.6-3.2
		l4-4.6l2.6-4.1l0,0l0,0.1c0,0,0.1,0,0.1,0c0.4,0,0.6-0.3,0.6-0.6c0-0.4-0.3-0.6-0.6-0.6c-0.4,0-0.6,0.3-0.6,0.6
		c0,0.2,0.1,0.4,0.3,0.6l0,0l0,0l-2.6,4l-4,4.6l0,0l0,0l-1.5,3l-0.7-1.9l-0.1-2.5l0.8-1.7l0.8-0.6l0,0l0,0c0.1,0.1,0.2,0.2,0.4,0.2
		c0.3,0,0.5-0.2,0.5-0.5c0-0.3-0.2-0.5-0.5-0.5c-0.3,0-0.5,0.2-0.5,0.5c0,0.1,0,0.2,0.1,0.2l0.1,0l0,0l-0.9,0.6l-0.9,1.8l0.1,2.6
		l0.8,2.2L2,37.9l-1.7-4.5l0-2.6l1.1-2.4l1.9-1.9l3.5-1l0-0.1l-0.1,0c0.1,0.2,0.3,0.3,0.5,0.3c0.3,0,0.5-0.2,0.5-0.5
		c0-0.3-0.2-0.5-0.5-0.5c-0.3,0-0.5,0.2-0.5,0.5c0,0,0,0,0,0.1l0.1,0l0-0.1l-1.2,0.4l-0.2-1.3L4,22.8l0,0l0,0
		c0.1-0.1,0.1-0.2,0.1-0.3c0-0.3-0.2-0.5-0.5-0.5c-0.3,0-0.5,0.2-0.5,0.5c0,0.3,0.2,0.5,0.5,0.5c0.1,0,0.2,0,0.3-0.1l0,0l0,0
		l1.2,1.5l0.1,1.3l-2,0.6l0,0l0,0l-2,2L0,30.7v2.7l1.9,5l0,1.8l0.8,2l2,1.5l1,2.9l2.6,2.1l2.5,0.5h0l0,0l0,0h5.7V49l-0.1,0
		C16.6,49.3,16.8,49.5,17.1,49.4L17.1,49.4L17.1,49.4c-0.2-0.1-0.4-0.2-0.4-0.4l0,0h-5.8l0,0h0l-2.5-0.5l-2.5-2.1l-1-2.9l-2.1-1.5
		L2,40.1l0-1.8l-1.9-5l0-2.6l1.1-2.4l2-1.9l0,0l2.1-0.6l-0.2-1.4l-1.3-1.5l0,0c-0.1,0-0.1,0.1-0.2,0.1c-0.2,0-0.4-0.2-0.4-0.4
		c0-0.2,0.2-0.4,0.4-0.4c0.2,0,0.4,0.2,0.4,0.4c0,0.1,0,0.2-0.1,0.3l0,0l1.3,1.5l0.2,1.4l1.4-0.4l0,0c0,0,0,0,0-0.1
		c0-0.2,0.2-0.4,0.4-0.4c0.2,0,0.4,0.2,0.4,0.4c0,0.2-0.2,0.4-0.4,0.4c-0.2,0-0.3-0.1-0.4-0.2l0,0l-3.5,1.1l-2,1.9l-1.1,2.4v2.6
		L2,38.3l0.5-2.7l-0.8-2.2l-0.1-2.6L2.5,29l0.9-0.6l0,0c0-0.1,0-0.1,0-0.2c0-0.2,0.2-0.4,0.4-0.4c0.2,0,0.4,0.2,0.4,0.4
		c0,0.2-0.2,0.4-0.4,0.4c-0.1,0-0.2,0-0.3-0.1l0,0L2.5,29l-0.9,1.8l0.1,2.6l0.8,2.2l1.6-3.2l0,0l4-4.6l2.6-4.1l-0.1,0
		c-0.2-0.1-0.3-0.3-0.3-0.5c0-0.1,0.1-0.3,0.2-0.4c0.1-0.1,0.2-0.2,0.4-0.2c0.1,0,0.3,0.1,0.4,0.2c0.1,0.1,0.2,0.2,0.2,0.4
		c0,0.1-0.1,0.3-0.2,0.4c-0.1,0.1-0.2,0.2-0.4,0.2c0,0-0.1,0-0.1,0l0,0l-2.7,4.1l-4,4.6l-1.6,3.2L2,38.4l0,1.7l0.8,1.9l2,1.4
		l0.3-2.6l-1-0.6l-0.4-1.9v-1.5l0.9-1.5l0,0c-0.1-0.1-0.1-0.2-0.1-0.3c0-0.2,0.2-0.4,0.4-0.4c0.2,0,0.4,0.2,0.4,0.4
		c0,0.2-0.2,0.4-0.4,0.4c-0.1,0-0.1,0-0.2,0l0,0l-0.9,1.5v1.5l0.4,1.9l1,0.6l1.4-2.5l2-3.3L8.5,35l0-0.2l0.8-1.3l0.5,0.3l-0.8,1.3
		l-0.2,0l-0.1,0l0,0l-2,3.3l-1.4,2.5l-0.3,2.7l1,2.9l2.5,2.1l2.5,0.5h5.8l0,0c0-0.2,0.2-0.3,0.4-0.3c0.2,0,0.4,0.2,0.4,0.4
		C17.5,49.2,17.3,49.4,17.1,49.4L17.1,49.4z M11,22.8L11,22.8c0.2,0.1,0.3,0.2,0.3,0.4c0,0.2-0.1,0.3-0.3,0.3
		c-0.2,0-0.3-0.1-0.3-0.3C10.7,23,10.8,22.9,11,22.8L11,22.8L11,22.8c-0.2-0.1-0.4,0.1-0.4,0.4c0,0.2,0.2,0.4,0.4,0.4
		c0.2,0,0.4-0.2,0.4-0.4C11.4,23,11.2,22.8,11,22.8L11,22.8z"/>
	<path id="XMLID_2494_" class="st0" d="M21.3,51.6c0,0.3,0.2,0.5,0.5,0.5c0.3,0,0.5-0.2,0.5-0.5c0-0.3-0.2-0.5-0.5-0.5
		c0,0-0.1,0-0.1,0l-1.2-2.3l0,0l-6.8-5.8v-3l0.6-1c0.1,0,0.2,0.1,0.2,0.1c0.3,0,0.5-0.2,0.5-0.5c0-0.3-0.2-0.5-0.5-0.5
		c-0.3,0-0.5,0.2-0.5,0.5c0,0.1,0,0.2,0.1,0.3L13.5,40v3.2l6.9,5.8l1.2,2.2C21.4,51.3,21.3,51.4,21.3,51.6z"/>
	<path id="XMLID_2491_" class="st0" d="M22.7,51.1c0.3,0,0.5-0.2,0.5-0.5c0-0.3-0.2-0.5-0.5-0.5c0,0-0.1,0-0.1,0l-1-1.9l0,0L16,42.9
		l-0.5-2.3c0.2-0.1,0.3-0.3,0.3-0.5c0-0.3-0.3-0.6-0.6-0.6c-0.3,0-0.6,0.3-0.6,0.6c0,0.3,0.3,0.6,0.6,0.6c0,0,0.1,0,0.1,0l0.5,2.3
		l5.7,5.3l1,1.9c-0.1,0.1-0.2,0.2-0.2,0.4C22.3,50.8,22.5,51.1,22.7,51.1z M14.9,40.1c0-0.2,0.2-0.4,0.4-0.4c0.2,0,0.4,0.2,0.4,0.4
		c0,0.2-0.2,0.4-0.4,0.4C15,40.4,14.9,40.2,14.9,40.1z"/>
	<path id="XMLID_2490_" class="st0" d="M18.3,43.3c-0.3,0-0.5,0.2-0.5,0.5c0,0.3,0.2,0.5,0.5,0.5c0.1,0,0.2,0,0.3-0.1l3.3,3.1
		c0,0.1-0.1,0.2-0.1,0.3c0,0.3,0.2,0.5,0.5,0.5c0.3,0,0.5-0.2,0.5-0.5c0-0.3-0.2-0.5-0.5-0.5c-0.1,0-0.2,0-0.3,0.1L18.7,44
		c0-0.1,0.1-0.2,0.1-0.3C18.8,43.5,18.6,43.3,18.3,43.3z"/>
	<path id="XMLID_2487_" class="st0" d="M24.2,51.4c-0.6,0-1.1,0.5-1.1,1.1s0.5,1.1,1.1,1.1c0.6,0,1.1-0.5,1.1-1.1
		S24.8,51.4,24.2,51.4z M24.2,53.3c-0.5,0-0.9-0.4-0.9-0.9c0-0.5,0.4-0.9,0.9-0.9c0.5,0,0.9,0.4,0.9,0.9
		C25.1,52.9,24.7,53.3,24.2,53.3z"/>
	<path id="XMLID_2486_" class="st0" d="M34.9,43.2L34.9,43.2l0-3.2L34.2,39c0.1-0.1,0.1-0.2,0.1-0.3c0-0.3-0.2-0.5-0.5-0.5
		s-0.5,0.2-0.5,0.5c0,0.3,0.2,0.5,0.5,0.5c0.1,0,0.2,0,0.2-0.1l0.6,1v3l-6.8,5.8l0,0l-1.2,2.3c0,0-0.1,0-0.1,0
		c-0.3,0-0.5,0.2-0.5,0.5c0,0.3,0.2,0.5,0.5,0.5c0.3,0,0.5-0.2,0.5-0.5c0-0.2-0.1-0.3-0.2-0.4l1.2-2.2L34.9,43.2z"/>
	<path id="XMLID_2485_" class="st0" d="M36.2,40.6L36.2,40.6l-0.5-1.1c0.1-0.1,0.2-0.2,0.2-0.4c0-0.3-0.2-0.5-0.5-0.5
		S35,38.9,35,39.1c0,0.3,0.2,0.5,0.5,0.5c0,0,0.1,0,0.1,0l0.5,1l-0.1,2.9l-1.7,1.7c-0.1-0.1-0.2-0.1-0.3-0.1c-0.3,0-0.5,0.2-0.5,0.5
		c0,0.3,0.2,0.5,0.5,0.5s0.5-0.2,0.5-0.5c0-0.1,0-0.2-0.1-0.2l1.8-1.8L36.2,40.6z"/>
	<path id="XMLID_2482_" class="st0" d="M47.2,28.3l-2-1.9l-2.1-0.6l0.2-1.3l1.2-1.5c0.1,0,0.1,0.1,0.2,0.1c0.3,0,0.5-0.2,0.5-0.5
		S45,22,44.8,22c-0.3,0-0.5,0.2-0.5,0.5c0,0.1,0,0.2,0.1,0.3l-1.3,1.5L43,25.7l-1.3-0.4c0,0,0,0,0-0.1c0-0.3-0.2-0.5-0.5-0.5
		s-0.5,0.2-0.5,0.5c0,0.3,0.2,0.5,0.5,0.5c0.2,0,0.3-0.1,0.4-0.3l3.5,1l2,1.9l1.1,2.4v2.6l-1.8,4.7L46,35.6l0.8-2.2l0,0l0.1-2.6
		L46,28.9l-0.9-0.6c0-0.1,0-0.1,0-0.2c0-0.3-0.2-0.5-0.5-0.5c-0.3,0-0.5,0.2-0.5,0.5c0,0.3,0.2,0.5,0.5,0.5c0.1,0,0.2-0.1,0.3-0.1
		l0.8,0.6l0.8,1.8l-0.1,2.6l-0.7,2.1l-1.6-3.1l-4-4.6l-2.6-4c0.2-0.1,0.3-0.3,0.3-0.5c0-0.3-0.3-0.6-0.6-0.6c-0.3,0-0.6,0.3-0.6,0.6
		c0,0.3,0.3,0.6,0.6,0.6c0,0,0.1,0,0.1,0l2.6,4.1l4,4.6l1.6,3.2l0.5,2.8l0,1.7L45.6,42l-1.9,1.4l-0.2-2.5l1-0.6l0.4-1.9l0-1.6
		l-0.9-1.5C44,35.2,44,35.1,44,35c0-0.3-0.2-0.5-0.5-0.5c-0.3,0-0.5,0.2-0.5,0.5s0.2,0.5,0.5,0.5c0.1,0,0.1,0,0.2,0l0.9,1.5v1.5
		l-0.4,1.9l-0.9,0.5l-1.4-2.4l-2-3.3l0.1,0l0.1-0.2l-0.8-1.4l-0.6,0.3l0.8,1.4l0.2,0.1l0.1-0.1l2,3.3l1.4,2.5l0.3,2.7l-1,2.8
		L40,48.4l-2.5,0.5h-5.7c0-0.2-0.2-0.4-0.5-0.4c-0.3,0-0.5,0.2-0.5,0.5c0,0.3,0.2,0.5,0.5,0.5c0.2,0,0.4-0.2,0.5-0.4h5.7l2.5-0.5
		l2.5-2.1l0,0l1-2.9l2.1-1.5l0.8-2l0,0l0-1.8l1.9-5l0,0v-2.7L47.2,28.3L47.2,28.3z M37.1,23.2c0-0.2,0.2-0.4,0.4-0.4
		c0.2,0,0.4,0.2,0.4,0.4c0,0.2-0.2,0.4-0.4,0.4C37.3,23.5,37.1,23.4,37.1,23.2z"/>
	<path id="XMLID_2479_" class="st0" d="M47.2,28.3L47.2,28.3l-2-2l-2-0.6l0.1-1.3l1.2-1.5l0,0l0,0c0.1,0,0.2,0.1,0.3,0.1
		c0.3,0,0.5-0.2,0.5-0.5c0-0.3-0.2-0.5-0.5-0.5c-0.3,0-0.5,0.2-0.5,0.5c0,0.1,0,0.3,0.1,0.3l0,0l0,0l-1.3,1.5L43,25.6l-1.2-0.4
		l0,0.1l0.1,0c0,0,0,0,0-0.1c0-0.3-0.2-0.5-0.5-0.5c-0.3,0-0.5,0.2-0.5,0.5c0,0.3,0.2,0.5,0.5,0.5c0.2,0,0.4-0.1,0.5-0.3l-0.1,0
		l0,0.1l3.5,1l1.9,1.9l1.1,2.4v2.6l-1.7,4.5L46,35.6l0.8-2.2l0,0l0,0l0.1-2.6L46,28.9l-0.9-0.6l0,0l0.1,0c0-0.1,0.1-0.1,0.1-0.2
		c0-0.3-0.2-0.5-0.5-0.5c-0.3,0-0.5,0.2-0.5,0.5c0,0.3,0.2,0.5,0.5,0.5c0.1,0,0.3-0.1,0.4-0.2l0,0l0,0l0.8,0.6l0.8,1.7l-0.1,2.5
		l-0.7,1.9l-1.5-3l-4-4.6l-2.6-4l0,0l0,0c0.2-0.1,0.3-0.3,0.3-0.6c0-0.4-0.3-0.6-0.6-0.6c-0.4,0-0.6,0.3-0.6,0.6
		c0,0.4,0.3,0.6,0.6,0.6c0.1,0,0.1,0,0.1,0l0-0.1l0,0l2.6,4.1l4,4.6l1.6,3.2l0.5,2.7l0,1.7L45.5,42l-1.8,1.3l-0.2-2.4l1-0.6l0.4-2
		l0-1.6l-0.9-1.5l0,0l0,0c0.1-0.1,0.2-0.2,0.2-0.4c0-0.3-0.2-0.5-0.5-0.5c-0.3,0-0.5,0.2-0.5,0.5c0,0.3,0.2,0.5,0.5,0.5
		c0.1,0,0.1,0,0.2,0l0-0.1l0,0l0.9,1.4v1.5l-0.4,1.8l-0.8,0.5L42,38.3l-2-3.2l0,0l0,0l0.1-0.3l-0.8-1.4l-0.7,0.4l0.8,1.4l0.3,0.1
		l0.1,0l2,3.2l1.4,2.4l0.2,2.6l-1,2.8l-2.4,2l-2.5,0.5h-5.7v0.1l0.1,0c0-0.2-0.3-0.4-0.5-0.4c-0.3,0-0.5,0.2-0.5,0.5
		c0,0.3,0.2,0.5,0.5,0.5c0.3,0,0.5-0.2,0.5-0.4l-0.1,0v0.1h5.7l2.6-0.5l2.5-2.1l0,0l0,0l1-2.9l2-1.5l0.8-2l0,0l0,0l0-1.8l1.9-5l0,0
		l0,0v-2.7L47.2,28.3L47.2,28.3L47.2,28.3L47.2,28.3L47.2,28.3L47.2,28.3L47.2,28.3l1.1,2.5v2.6l0,0l-1.9,5l0,1.8l0,0l-0.8,1.9
		l-2.1,1.5l-1,2.9l0,0l-2.5,2.1L37.5,49h-5.8l0,0c0,0.2-0.2,0.3-0.4,0.3c-0.2,0-0.4-0.2-0.4-0.4c0-0.2,0.2-0.4,0.4-0.4
		c0.2,0,0.4,0.1,0.4,0.3l0,0h5.8l2.5-0.5l2.5-2.1l1-2.9l-0.3-2.7l-1.4-2.5l-2-3.3l-0.1,0.1l-0.2,0l-0.8-1.3l0.5-0.3l0.8,1.3l0,0.2
		l-0.1,0l0,0l2,3.3l1.4,2.5l1-0.6l0.4-1.9v-1.5l-0.9-1.5l0,0c0,0-0.1,0-0.2,0c-0.2,0-0.4-0.2-0.4-0.4c0-0.2,0.2-0.4,0.4-0.4
		c0.2,0,0.4,0.2,0.4,0.4c0,0.1-0.1,0.2-0.1,0.3l0,0l0.9,1.5l0,1.5l-0.4,1.9l-1,0.6l0.3,2.6l2-1.4l0.8-1.9l0-1.7l-0.5-2.8l-1.6-3.2
		l-4-4.6l-2.7-4.1l0,0c0,0-0.1,0-0.1,0c-0.1,0-0.3-0.1-0.4-0.2c-0.1-0.1-0.2-0.2-0.2-0.4c0-0.1,0.1-0.3,0.2-0.4
		c0.1-0.1,0.2-0.2,0.4-0.2c0.1,0,0.3,0.1,0.4,0.2c0.1,0.1,0.2,0.2,0.2,0.4c0,0.2-0.1,0.4-0.3,0.5l-0.1,0l2.6,4.1l4,4.6l1.6,3.2
		l0.8-2.2l0.1-2.6L45.9,29L45,28.4l0,0c-0.1,0.1-0.2,0.1-0.3,0.1c-0.2,0-0.4-0.2-0.4-0.4c0-0.2,0.2-0.4,0.4-0.4
		c0.2,0,0.4,0.2,0.4,0.4c0,0.1,0,0.1,0,0.2l0,0l0.9,0.6l0.9,1.8l-0.1,2.6l0,0l-0.8,2.2l0.5,2.7l1.9-4.9v-2.6L47.2,28.3l-2.1-1.9
		l-3.5-1.1l0,0c-0.1,0.1-0.2,0.2-0.4,0.2c-0.2,0-0.4-0.2-0.4-0.4c0-0.2,0.2-0.4,0.4-0.4c0.2,0,0.4,0.2,0.4,0.4c0,0,0,0,0,0.1l0,0
		l1.4,0.4l0.2-1.4l1.3-1.5l0,0c-0.1-0.1-0.1-0.2-0.1-0.3c0-0.2,0.2-0.4,0.4-0.4c0.2,0,0.4,0.2,0.4,0.4c0,0.2-0.2,0.4-0.4,0.4
		c-0.1,0-0.1,0-0.2-0.1l0,0l-1.3,1.5l-0.2,1.4l2.1,0.6L47.2,28.3L47.2,28.3L47.2,28.3L47.2,28.3z M37.1,23.2L37.1,23.2
		c0.1-0.2,0.2-0.3,0.4-0.3c0.2,0,0.3,0.1,0.3,0.3c0,0.2-0.1,0.3-0.3,0.3C37.3,23.5,37.2,23.4,37.1,23.2L37.1,23.2L37.1,23.2
		c-0.1,0.2,0.1,0.4,0.4,0.4c0.2,0,0.4-0.2,0.4-0.4c0-0.2-0.2-0.4-0.4-0.4C37.2,22.8,37.1,23,37.1,23.2L37.1,23.2z"/>
	<path id="XMLID_2478_" class="st0" d="M40.3,22.7l1.7,0l0.7-0.3c0.1,0.1,0.2,0.2,0.4,0.2c0.3,0,0.5-0.2,0.5-0.5
		c0-0.3-0.2-0.5-0.5-0.5c-0.3,0-0.5,0.2-0.5,0.5c0,0,0,0,0,0.1l-0.7,0.3l-1.6,0l-2.5-1l-2-3.6c0.1-0.1,0.2-0.2,0.2-0.4
		c0-0.3-0.2-0.5-0.5-0.5c-0.3,0-0.5,0.2-0.5,0.5c0,0.3,0.2,0.5,0.5,0.5c0.1,0,0.1,0,0.2,0l2.1,3.7L40.3,22.7z"/>
	<path id="XMLID_2477_" class="st0" d="M41.4,16.2l-2.6-1.7l-2.6-0.4l-2.2,0.7c-0.1-0.1-0.2-0.2-0.4-0.2c-0.3,0-0.5,0.2-0.5,0.5
		c0,0.3,0.2,0.5,0.5,0.5c0.3,0,0.5-0.2,0.5-0.5c0-0.1,0-0.1,0-0.2l2.2-0.7l2.6,0.4l2.6,1.6v1.4l-2,2c-0.1,0-0.1-0.1-0.2-0.1
		c-0.3,0-0.5,0.2-0.5,0.5s0.2,0.5,0.5,0.5c0.3,0,0.5-0.2,0.5-0.5c0-0.1,0-0.2-0.1-0.3l2-2V16.2z"/>
	<path id="XMLID_2476_" class="st0" d="M41.4,16.2L41.4,16.2l-2.6-1.8L36.1,14l-2.3,0.7l0,0.1l0.1-0.1c-0.1-0.1-0.3-0.2-0.4-0.2
		c-0.3,0-0.6,0.3-0.6,0.6c0,0.3,0.3,0.6,0.6,0.6c0.3,0,0.6-0.3,0.6-0.6c0-0.1,0-0.1,0-0.2l-0.1,0l0,0.1l2.1-0.7l2.5,0.4l2.5,1.6v1.2
		l-1.9,2l0.1,0.1l0.1-0.1c-0.1-0.1-0.2-0.1-0.3-0.1c-0.3,0-0.6,0.3-0.6,0.6c0,0.3,0.3,0.6,0.6,0.6c0.3,0,0.6-0.3,0.6-0.6
		c0-0.1-0.1-0.3-0.1-0.4l-0.1,0.1l0.1,0.1l2-2.1v-1.6L41.4,16.2L41.4,16.2h-0.1v1.5l-2.1,2.1l0.1,0.1c0.1,0.1,0.1,0.1,0.1,0.2
		c0,0.2-0.2,0.4-0.4,0.4c-0.2,0-0.4-0.2-0.4-0.4c0-0.2,0.2-0.4,0.4-0.4c0.1,0,0.1,0,0.2,0l0.1,0l2.1-2.1L41.4,16.2l-2.7-1.7
		l-2.6-0.4l-2.3,0.7l0,0.1c0,0,0,0.1,0,0.1c0,0.2-0.2,0.4-0.4,0.4c-0.2,0-0.4-0.2-0.4-0.4c0-0.2,0.2-0.4,0.4-0.4
		c0.1,0,0.2,0.1,0.3,0.1l0,0.1l2.3-0.7l2.6,0.4L41.4,16.2L41.4,16.2h-0.1H41.4z"/>
	<polygon id="XMLID_2475_" class="st0" points="31.6,37.2 34.9,34.3 34.8,34.2 31.4,37.1 31.4,40 31.6,40 	"/>
	<path id="XMLID_2474_" class="st0" d="M25.5,31.2l0.9,1.4l0.6-0.3l-1-1.4l-0.2-0.1l-0.1,0l-0.4-0.5v-5.5c0.2,0,0.4-0.2,0.4-0.5
		c0-0.3-0.2-0.5-0.5-0.5c-0.3,0-0.5,0.2-0.5,0.5c0,0.2,0.2,0.4,0.4,0.5v5.6l0.4,0.6l-0.1,0L25.5,31.2z"/>
	<path id="XMLID_2471_" class="st0" d="M25.3,19.1c-0.3,0-0.6,0.3-0.6,0.6c0,0.3,0.3,0.6,0.6,0.6c0.3,0,0.6-0.3,0.6-0.6
		c0,0,0-0.1,0-0.1l1-0.9l1.2,1.4v1.6l-1.1,1c-0.1-0.1-0.2-0.2-0.4-0.2c-0.3,0-0.5,0.2-0.5,0.5s0.2,0.5,0.5,0.5
		c0.3,0,0.5-0.2,0.5-0.5c0-0.1,0-0.1,0-0.2l1.2-1v-1.7l-1.3-1.6l-1.1,1C25.7,19.2,25.5,19.1,25.3,19.1z M25.3,20.1
		c-0.2,0-0.4-0.2-0.4-0.4c0-0.2,0.2-0.4,0.4-0.4s0.4,0.2,0.4,0.4C25.6,19.9,25.5,20.1,25.3,20.1z"/>
	<path id="XMLID_2470_" class="st0" d="M34.1,22.6c-0.2,0-0.4,0.2-0.5,0.4h-1.7l-1.4-1.9c0-0.1,0.1-0.1,0.1-0.2
		c0-0.3-0.2-0.5-0.5-0.5c-0.3,0-0.5,0.2-0.5,0.5c0,0.2,0.1,0.3,0.2,0.4l-0.6,1.8l-1.8,0.8c-0.1-0.1-0.2-0.2-0.4-0.2
		c-0.3,0-0.5,0.2-0.5,0.5c0,0.3,0.2,0.5,0.5,0.5c0.3,0,0.5-0.2,0.5-0.5c0-0.1,0-0.1,0-0.2l1.9-0.8l0.7-1.9c0,0,0.1,0,0.1,0
		c0.1,0,0.2,0,0.3-0.1l1.4,1.9h1.8c0,0.2,0.2,0.4,0.5,0.4c0.3,0,0.5-0.2,0.5-0.5C34.6,22.8,34.4,22.6,34.1,22.6z"/>
	<path id="XMLID_2467_" class="st0" d="M34.6,24c-0.3,0-0.6,0.3-0.6,0.6c0,0.2,0.1,0.4,0.3,0.5l-0.5,1.6l-1.6,2.1l-2.8,1.4v0.9
		l0.7,1.3c-0.1,0.1-0.2,0.2-0.2,0.3c0,0.3,0.2,0.5,0.5,0.5c0.3,0,0.5-0.2,0.5-0.5c0-0.3-0.2-0.5-0.5-0.5c-0.1,0-0.1,0-0.2,0
		l-0.7-1.3v-0.8l2.7-1.4l0,0l1.7-2.2l0.6-1.7c0,0,0.1,0,0.1,0c0.3,0,0.6-0.3,0.6-0.6C35.2,24.3,34.9,24,34.6,24z M34.6,24.9
		c-0.2,0-0.4-0.2-0.4-0.4c0-0.2,0.2-0.4,0.4-0.4c0.2,0,0.4,0.2,0.4,0.4C34.9,24.8,34.8,24.9,34.6,24.9z"/>
	<path id="XMLID_2466_" class="st0" d="M35.5,27c0-0.3-0.2-0.5-0.5-0.5c-0.3,0-0.5,0.2-0.5,0.5c0,0.3,0.2,0.5,0.5,0.5
		c0,0,0.1,0,0.1,0l0.5,3.8l-3.6,1.8c-0.1-0.1-0.2-0.2-0.4-0.2c-0.3,0-0.5,0.2-0.5,0.5s0.2,0.5,0.5,0.5c0.3,0,0.5-0.2,0.5-0.5
		c0,0,0-0.1,0-0.1l3.7-1.8l-0.6-4C35.4,27.4,35.5,27.2,35.5,27z"/>
	<path id="XMLID_2465_" class="st0" d="M35.9,34.5l0.2-0.2v-1.6h-0.7v1.6l0.2,0.2h0.1v3.4l1.7,2.2l0.5,2.3l-0.5,2.1l-1.1,0.8
		c-0.1-0.1-0.2-0.2-0.4-0.2c-0.3,0-0.5,0.2-0.5,0.5c0,0.3,0.2,0.5,0.5,0.5c0.3,0,0.5-0.2,0.5-0.5c0-0.1,0-0.1,0-0.2l1.2-0.9l0.5-2.2
		l0,0L37.5,40l0,0l-1.7-2.2v-3.3H35.9z"/>
	<path id="XMLID_2464_" class="st0" d="M35.9,34.5L35.9,34.5l0.2-0.1v-1.7h-0.8v1.7l0.2,0.2h0.1v3.3l1.7,2.2l0.5,2.3l-0.4,2.1
		l-1.1,0.8l0,0l0,0c-0.1-0.1-0.2-0.2-0.4-0.2c-0.3,0-0.5,0.2-0.5,0.5c0,0.3,0.2,0.5,0.5,0.5c0.3,0,0.5-0.2,0.5-0.5
		c0-0.1,0-0.1,0-0.2l-0.1,0l0,0l1.2-0.9l0.5-2.2l0,0l0,0L37.6,40l0,0l0,0l-1.7-2.2L35.9,34.5L35.9,34.5L35.9,34.5L35.9,34.5
		L35.9,34.5L35.9,34.5l-0.1-0.1h-0.1v3.4l1.7,2.2l0,0l0.5,2.3l0,0l-0.5,2.1l-1.2,0.9l0,0c0,0,0,0.1,0,0.2c0,0.2-0.2,0.4-0.4,0.4
		c-0.2,0-0.4-0.2-0.4-0.4c0-0.2,0.2-0.4,0.4-0.4c0.1,0,0.2,0.1,0.3,0.1l0,0l1.2-0.9l0.5-2.1l-0.5-2.3l-1.7-2.2l0-3.4h-0.1l-0.1-0.1
		v-1.5H36v1.5L35.9,34.5L35.9,34.5L35.9,34.5L35.9,34.5z"/>
	<path id="XMLID_2460_" class="st0" d="M26.3,10.9c-0.3,0-0.6,0.3-0.6,0.6c0,0.3,0.3,0.6,0.6,0.6c0.2,0,0.4-0.1,0.5-0.3l4.3,2.1
		l1.3,6.1c-0.2,0.1-0.4,0.3-0.4,0.5c0,0.3,0.3,0.6,0.6,0.6c0.3,0,0.6-0.3,0.6-0.6c0-0.3-0.3-0.6-0.6-0.6c0,0-0.1,0-0.1,0l-1.3-6.2
		l-4.3-2.1c0-0.1,0-0.1,0-0.2C26.9,11.2,26.6,10.9,26.3,10.9z M32.9,20.5c0,0.2-0.2,0.4-0.4,0.4c-0.2,0-0.4-0.2-0.4-0.4
		c0-0.2,0.2-0.4,0.4-0.4C32.7,20.2,32.9,20.3,32.9,20.5z M26.3,11.8c-0.2,0-0.4-0.2-0.4-0.4c0-0.2,0.2-0.4,0.4-0.4
		c0.2,0,0.4,0.2,0.4,0.4C26.6,11.7,26.5,11.8,26.3,11.8z"/>
	<path id="XMLID_2459_" class="st0" d="M27,13.6c0-0.3-0.2-0.5-0.5-0.5c-0.3,0-0.5,0.2-0.5,0.5c0,0.3,0.2,0.5,0.5,0.5l0,0l0.6,2.7
		l3,2.3c0,0.1-0.1,0.1-0.1,0.2c0,0.3,0.2,0.5,0.5,0.5c0.3,0,0.5-0.2,0.5-0.5s-0.2-0.5-0.5-0.5c-0.1,0-0.2,0-0.3,0.1l-3-2.3L26.7,14
		C26.9,13.9,27,13.7,27,13.6z"/>
	<path id="XMLID_2458_" class="st0" d="M41.7,32.9c0.3,0,0.5-0.2,0.5-0.5S42,32,41.7,32c-0.1,0-0.1,0-0.2,0.1l-4.7-6.5l-2.5-7.3
		c0.1-0.1,0.2-0.2,0.2-0.4c0-0.3-0.2-0.5-0.5-0.5c-0.3,0-0.5,0.2-0.5,0.5c0,0.3,0.2,0.5,0.5,0.5c0,0,0.1,0,0.1,0l2.5,7.3l0,0
		l4.7,6.6c-0.1,0.1-0.1,0.2-0.1,0.3C41.3,32.7,41.5,32.9,41.7,32.9z"/>
	<path id="XMLID_2457_" class="st0" d="M40.3,32.8c0.3,0,0.5-0.2,0.5-0.5c0-0.3-0.2-0.5-0.5-0.5c-0.1,0-0.2,0-0.2,0.1l-1.5-1.7
		l-2.1-3.2l-0.1,0.1l2.1,3.2l1.5,1.7c-0.1,0.1-0.1,0.2-0.1,0.3C39.8,32.6,40,32.8,40.3,32.8z"/>
	<path id="XMLID_2456_" class="st0" d="M37,37c-0.3,0-0.5,0.2-0.5,0.5c0,0.3,0.2,0.5,0.5,0.5c0.1,0,0.2,0,0.3-0.1l1.8,2l0.8,2.1
		l-0.4,2.2l-1.1,1.1c-0.1-0.1-0.2-0.1-0.3-0.1c-0.3,0-0.5,0.2-0.5,0.5c0,0.3,0.2,0.5,0.5,0.5c0.3,0,0.5-0.2,0.5-0.5
		c0-0.1,0-0.2-0.1-0.2l1.1-1.1L40,42l-0.8-2.2l-1.9-2c0.1-0.1,0.1-0.2,0.1-0.3C37.5,37.2,37.3,37,37,37z"/>
	<path id="XMLID_2455_" class="st0" d="M37,37L37,37c-0.3-0.1-0.5,0.2-0.5,0.5c0,0.3,0.2,0.5,0.5,0.5c0.1,0,0.2,0,0.3-0.1l0,0l0,0
		l1.8,2l0.7,2.1l-0.4,2.2l-1.1,1.1l0,0l0,0c-0.1-0.1-0.2-0.1-0.3-0.1c-0.3,0-0.5,0.2-0.5,0.5c0,0.3,0.2,0.5,0.5,0.5
		c0.3,0,0.5-0.2,0.5-0.5c0-0.1,0-0.2-0.1-0.3l0,0l0,0l1.2-1.1l0.5-2.3l-0.8-2.2l-1.9-2l0,0l0,0c0.1-0.1,0.1-0.2,0.1-0.3
		C37.5,37.2,37.3,37,37,37L37,37L37,37c0.2,0.1,0.4,0.2,0.4,0.5c0,0.1,0,0.2-0.1,0.2l0,0l1.9,2L40,42l-0.5,2.3l-1.2,1.1l0,0
		c0,0.1,0.1,0.1,0.1,0.2c0,0.2-0.2,0.4-0.4,0.4c-0.2,0-0.4-0.2-0.4-0.4c0-0.2,0.2-0.4,0.4-0.4c0.1,0,0.2,0,0.3,0.1l0,0l1.2-1.1
		l0.5-2.2l-0.8-2.2l-1.9-2l0,0c-0.1,0-0.1,0.1-0.2,0.1c-0.2,0-0.4-0.2-0.4-0.4C36.6,37.2,36.8,37.1,37,37L37,37z"/>
	<path id="XMLID_2454_" class="st0" d="M33.2,47.9c0.2,0,0.4-0.2,0.5-0.4h3.8l1.9-1.1l2.3-2.4l0.3-2.4L41,39.1l-2.6-3.2L37.9,33
		l0.1,0l0.1-0.2l-0.3-1.6l-0.7,0.1l0.3,1.6l0.2,0.1l0.1,0l0.5,2.9l0,0l2.6,3.2l0.9,2.4l-0.3,2.4l-2.3,2.3l-1.9,1.1h-3.8
		c0-0.2-0.2-0.4-0.5-0.4c-0.3,0-0.5,0.2-0.5,0.5C32.7,47.7,32.9,47.9,33.2,47.9z"/>
	<path id="XMLID_2453_" class="st0" d="M33.2,47.9L33.2,47.9c0.3,0.1,0.5-0.1,0.5-0.4l-0.1,0v0.1h3.8l1.9-1.2l2.3-2.4l0.3-2.5
		l-0.9-2.5l-2.6-3.2L38,33.1l0,0l0,0l0.2-0.2l-0.3-1.6l-0.8,0.1l0.3,1.6l0.2,0.1l0.1,0l0.5,2.8l0,0l0,0l2.6,3.2l0.9,2.4l-0.2,2.3
		l-2.2,2.3l-1.8,1.1h-3.7v0.1l0.1,0c0-0.2-0.3-0.4-0.5-0.4c-0.3,0-0.5,0.2-0.5,0.5C32.7,47.7,32.9,48,33.2,47.9L33.2,47.9L33.2,47.9
		c-0.2-0.1-0.4-0.2-0.4-0.5c0-0.2,0.2-0.4,0.4-0.4c0.2,0,0.4,0.1,0.4,0.3l0,0h3.8l1.9-1.1l2.3-2.3l0.3-2.4l-0.9-2.4L38.3,36l0,0
		l-0.5-3l-0.1,0l-0.2-0.1l-0.3-1.5l0.6-0.1l0.3,1.5L38,33l-0.1,0l-0.1,0l0.5,3l2.6,3.2l0.9,2.4L41.6,44l-2.3,2.4l-1.9,1.1h-3.8l0,0
		C33.6,47.7,33.4,47.8,33.2,47.9L33.2,47.9z"/>
	<path id="XMLID_2450_" class="st0" d="M25.7,51.1c0.3,0,0.5-0.2,0.5-0.5c0-0.2-0.1-0.3-0.2-0.4l1-1.9l5.6-5.3l0,0l0.5-2.3
		c0,0,0.1,0,0.1,0c0.3,0,0.6-0.3,0.6-0.6c0-0.3-0.3-0.6-0.6-0.6c-0.3,0-0.6,0.3-0.6,0.6c0,0.2,0.1,0.4,0.3,0.5l-0.5,2.3l-5.7,5.3
		l-1,2c0,0-0.1,0-0.1,0c-0.3,0-0.5,0.2-0.5,0.5C25.2,50.8,25.4,51.1,25.7,51.1z M33.2,39.7c0.2,0,0.4,0.2,0.4,0.4
		c0,0.2-0.2,0.4-0.4,0.4c-0.2,0-0.4-0.2-0.4-0.4C32.9,39.9,33,39.7,33.2,39.7z"/>
	<path id="XMLID_2449_" class="st0" d="M30.1,44.2c0.3,0,0.5-0.2,0.5-0.5c0-0.3-0.2-0.5-0.5-0.5c-0.3,0-0.5,0.2-0.5,0.5
		c0,0.1,0,0.2,0.1,0.3l-3.3,3.1C26.4,47,26.3,47,26.2,47c-0.3,0-0.5,0.2-0.5,0.5c0,0.3,0.2,0.5,0.5,0.5c0.3,0,0.5-0.2,0.5-0.5
		c0-0.1,0-0.2-0.1-0.3l3.3-3.1C29.9,44.2,30,44.2,30.1,44.2z"/>
	<path id="XMLID_2446_" class="st0" d="M33.7,9.3c0.2,0,0.4-0.2,0.4-0.5c0-0.3-0.2-0.5-0.5-0.5s-0.5,0.2-0.5,0.5
		c0,0.2,0.1,0.4,0.3,0.4l-0.8,3.6l-6.4,2.9c-0.3-0.9-1.1-1.6-2.1-1.6c-1,0-1.9,0.7-2.1,1.6l-6.4-2.9l-0.8-3.6
		c0.2-0.1,0.3-0.2,0.3-0.4c0-0.3-0.2-0.5-0.5-0.5c-0.3,0-0.5,0.2-0.5,0.5c0,0.3,0.2,0.5,0.4,0.5l0.9,3.7l6.4,2.9c0,0.1,0,0.3,0,0.4
		c0,1.2,1,2.2,2.2,2.2c1.2,0,2.2-1,2.2-2.2c0-0.2,0-0.3,0-0.4l6.4-2.9L33.7,9.3z M24.2,18.4c-1.1,0-2-0.9-2-2c0-1.1,0.9-2,2-2
		c1.1,0,2,0.9,2,2C26.3,17.5,25.4,18.4,24.2,18.4z"/>
	<path id="XMLID_2443_" class="st0" d="M33.7,9.3l0,0.1c0.3,0,0.6-0.3,0.6-0.6c0-0.3-0.3-0.6-0.6-0.6c-0.3,0-0.6,0.3-0.6,0.6
		c0,0.3,0.2,0.5,0.4,0.6l0-0.1l-0.1,0l-0.8,3.5l-6.3,2.8l0,0.1l0.1,0c-0.3-1-1.2-1.7-2.2-1.7c-1.1,0-2,0.7-2.2,1.7l0.1,0l0-0.1
		l-6.3-2.8L15,9.3l-0.1,0l0,0.1c0.2-0.1,0.4-0.3,0.4-0.6c0-0.3-0.3-0.6-0.6-0.6c-0.3,0-0.6,0.3-0.6,0.6c0,0.3,0.2,0.6,0.6,0.6l0-0.1
		l-0.1,0l0.9,3.7L22,16l0-0.1l-0.1,0c0,0.2,0,0.3,0,0.5c0,1.3,1,2.3,2.3,2.3c1.3,0,2.3-1,2.3-2.3c0-0.2,0-0.3,0-0.5l-0.1,0l0,0.1
		l6.5-2.9l0.9-3.7L33.7,9.3l0,0.1L33.7,9.3l-0.1,0l-0.9,3.6l-6.5,2.9l0,0.1c0,0.1,0,0.3,0,0.4c0,0.6-0.2,1.1-0.6,1.5
		c-0.4,0.4-0.9,0.6-1.5,0.6c-0.6,0-1.1-0.2-1.5-0.6c-0.4-0.4-0.6-0.9-0.6-1.5c0-0.1,0-0.3,0-0.4l0-0.1l-6.5-2.9l-0.9-3.7l-0.1,0
		c-0.2,0-0.3-0.2-0.3-0.4c0-0.2,0.2-0.4,0.4-0.4c0.2,0,0.4,0.2,0.4,0.4c0,0.2-0.1,0.3-0.3,0.3l-0.1,0l0.9,3.7l6.5,2.9l0-0.1
		c0.2-0.9,1.1-1.5,2-1.5c1,0,1.8,0.6,2,1.5l0,0.1l6.5-2.9L33.7,9.3l-0.1-0.1c-0.1,0-0.3-0.2-0.3-0.3c0-0.2,0.2-0.4,0.4-0.4
		c0.2,0,0.4,0.2,0.4,0.4c0,0.2-0.2,0.3-0.3,0.4l-0.1,0l0,0.1L33.7,9.3z M24.2,18.4v-0.1c-0.5,0-1-0.2-1.4-0.6
		c-0.4-0.4-0.6-0.8-0.6-1.4c0-0.5,0.2-1,0.6-1.4c0.4-0.4,0.8-0.6,1.4-0.6c0.5,0,1,0.2,1.4,0.6c0.4,0.4,0.6,0.8,0.6,1.4
		c0,0.5-0.2,1-0.6,1.4c-0.4,0.4-0.8,0.6-1.4,0.6V18.4v0.1c1.2,0,2.2-1,2.2-2.2c0-1.2-1-2.2-2.2-2.2c-1.2,0-2.2,1-2.2,2.2
		c0,1.2,1,2.2,2.2,2.2V18.4z"/>
	<path id="XMLID_2440_" class="st0" d="M24.2,18.1c0.9,0,1.7-0.8,1.7-1.7c0-0.9-0.8-1.7-1.7-1.7c-0.9,0-1.7,0.8-1.7,1.7
		C22.5,17.3,23.3,18.1,24.2,18.1z M24.2,15.2c0.6,0,1.1,0.5,1.1,1.1c0,0.6-0.5,1.1-1.1,1.1c-0.6,0-1.1-0.5-1.1-1.1
		C23.1,15.7,23.6,15.2,24.2,15.2z"/>
	<path id="XMLID_2439_" class="st0" d="M20.3,7.5c0.3,0,0.5-0.2,0.5-0.5c0-0.3-0.2-0.5-0.5-0.5c-0.3,0-0.5,0.2-0.5,0.5
		c0,0.2,0.1,0.3,0.2,0.4l-0.5,1.1l0.1,3l1.8,1.8c0,0.1-0.1,0.2-0.1,0.2c0,0.3,0.2,0.5,0.5,0.5c0.3,0,0.5-0.2,0.5-0.5
		c0-0.3-0.2-0.5-0.5-0.5c-0.1,0-0.2,0-0.3,0.1l-1.7-1.7l-0.1-2.9l0.5-1C20.3,7.5,20.3,7.5,20.3,7.5z"/>
	<path id="XMLID_2438_" class="st0" d="M20.3,7.5v0.1c0.3,0,0.6-0.3,0.6-0.6c0-0.3-0.3-0.6-0.6-0.6c-0.3,0-0.6,0.3-0.6,0.6
		c0,0.2,0.1,0.4,0.2,0.5l0.1-0.1l-0.1,0l-0.5,1.1l0.1,3.1l1.8,1.8l0.1-0.1l-0.1-0.1c-0.1,0.1-0.1,0.2-0.1,0.3c0,0.3,0.3,0.6,0.6,0.6
		c0.3,0,0.6-0.3,0.6-0.6c0-0.3-0.3-0.6-0.6-0.6c-0.1,0-0.3,0-0.4,0.1l0.1,0.1l0.1-0.1L20,11.4l-0.1-2.8L20.3,7.5l-0.1,0l0,0.1
		c0,0,0.1,0,0.2,0V7.5V7.4c0,0-0.1,0-0.1,0l-0.1,0l-0.5,1.1l0.1,3l1.8,1.8l0.1-0.1c0.1-0.1,0.1-0.1,0.2-0.1c0.2,0,0.4,0.2,0.4,0.4
		c0,0.2-0.2,0.4-0.4,0.4c-0.2,0-0.4-0.2-0.4-0.4c0-0.1,0-0.1,0.1-0.2l0-0.1l-1.8-1.8l-0.1-2.9l0.5-1.1l-0.1-0.1
		C20.1,7.3,20,7.2,20,7.1c0-0.2,0.2-0.4,0.4-0.4c0.2,0,0.4,0.2,0.4,0.4c0,0.2-0.2,0.4-0.4,0.4V7.5z"/>
	<path id="XMLID_2437_" class="st0" d="M28.1,7.5c-0.3,0-0.5-0.2-0.5-0.5c0-0.3,0.2-0.5,0.5-0.5c0.3,0,0.5,0.2,0.5,0.5
		c0,0.2-0.1,0.3-0.2,0.4l0.5,1.1l-0.1,3l-1.8,1.8c0,0.1,0.1,0.2,0.1,0.2c0,0.3-0.2,0.5-0.5,0.5c-0.3,0-0.5-0.2-0.5-0.5
		c0-0.3,0.2-0.5,0.5-0.5c0.1,0,0.2,0,0.3,0.1l1.7-1.7l0.1-2.9l-0.5-1C28.2,7.5,28.1,7.5,28.1,7.5z"/>
	<path id="XMLID_2436_" class="st0" d="M28.1,7.5V7.4c-0.2,0-0.4-0.2-0.4-0.4c0-0.2,0.2-0.4,0.4-0.4c0.2,0,0.4,0.2,0.4,0.4
		c0,0.1-0.1,0.2-0.2,0.3l-0.1,0.1l0.5,1.1l-0.1,2.9l-1.8,1.8l0,0.1c0,0.1,0.1,0.1,0.1,0.2c0,0.2-0.2,0.4-0.4,0.4
		c-0.2,0-0.4-0.2-0.4-0.4c0-0.2,0.2-0.4,0.4-0.4c0.1,0,0.2,0,0.2,0.1l0.1,0.1l1.8-1.8l0.1-3l-0.5-1.1l-0.1,0c0,0-0.1,0-0.1,0V7.5
		v0.1c0.1,0,0.1,0,0.2,0l0-0.1L28.1,7.5l0.5,1l-0.1,2.8l-1.7,1.7l0.1,0.1l0.1-0.1C26.8,13,26.7,13,26.5,13c-0.3,0-0.6,0.3-0.6,0.6
		c0,0.3,0.3,0.6,0.6,0.6c0.3,0,0.6-0.3,0.6-0.6c0-0.1,0-0.2-0.1-0.3l-0.1,0.1l0.1,0.1l1.8-1.8L29,8.5l-0.5-1.1l-0.1,0l0.1,0.1
		c0.1-0.1,0.2-0.3,0.2-0.5c0-0.3-0.3-0.6-0.6-0.6c-0.3,0-0.6,0.3-0.6,0.6c0,0.3,0.3,0.6,0.6,0.6V7.5z"/>
	<path id="XMLID_2435_" class="st0" d="M23.8,16.3c0,0.3,0.2,0.5,0.5,0.5c0.3,0,0.5-0.2,0.5-0.5c0-0.2-0.2-0.4-0.4-0.5v-6h0.1
		l0.2-0.2V8.1h-0.7v1.6l0.2,0.2h0.1v6C23.9,15.9,23.8,16.1,23.8,16.3z"/>
	<path id="XMLID_2434_" class="st0" d="M23.8,16.3h-0.1c0,0.3,0.3,0.6,0.6,0.6c0.3,0,0.6-0.3,0.6-0.6c0-0.3-0.2-0.5-0.5-0.6l0,0.1
		h0.1v-6h-0.1V10h0.1h0l0.2-0.2V8h-0.9v1.7L24,10h0v5.9h0.1l0-0.1c-0.3,0-0.5,0.3-0.5,0.6H23.8h0.1c0-0.2,0.1-0.3,0.3-0.3l0.1,0V9.8
		h-0.2L24,9.7V8.3h0.5v1.4l-0.1,0.1h-0.1h-0.1V16l0.1,0c0.2,0,0.3,0.2,0.3,0.3c0,0.2-0.2,0.4-0.4,0.4c-0.2,0-0.4-0.2-0.4-0.4H23.8z"
		/>
	<path id="XMLID_2433_" class="st0" d="M12.2,27.6c0.2,0,0.4-0.2,0.4-0.5c0-0.3-0.2-0.5-0.5-0.5c-0.3,0-0.5,0.2-0.5,0.5
		c0,0.2,0.2,0.4,0.4,0.5"/>
	<path id="XMLID_2432_" class="st0" d="M36.4,27.6c0.2,0,0.4-0.2,0.4-0.5c0-0.3-0.2-0.5-0.5-0.5c-0.3,0-0.5,0.2-0.5,0.5
		c0,0.2,0.2,0.4,0.4,0.5"/>
	<path id="XMLID_2431_" class="st0" d="M23.7,52.5c0,0.3,0.2,0.5,0.5,0.5c0.3,0,0.5-0.2,0.5-0.5c0-0.2-0.2-0.4-0.4-0.5v-4.2h0.1
		l0.2-0.2v-1.6h-0.7v1.6l0.2,0.2h0.1V52C23.9,52,23.7,52.2,23.7,52.5z"/>
	<polygon id="XMLID_2430_" class="st0" points="17.6,40.2 17.7,40.3 18.7,37.5 22.2,35.9 22.9,37.1 24.1,37.8 24.1,43.7 21.8,44.7 
		17.7,40.2 17.6,40.2 17.7,40.3 17.6,40.2 17.5,40.3 21.8,45 24.3,43.8 24.3,37.7 23.1,36.9 22.3,35.6 18.5,37.3 17.5,40.3 
		17.5,40.3 	"/>
	<polygon id="XMLID_2429_" class="st0" points="30.8,40.2 31,40.2 29.9,37.3 26.2,35.6 25.4,36.9 24.1,37.7 24.1,43.8 26.7,45 
		31,40.3 31,40.2 30.8,40.2 30.8,40.2 26.6,44.7 24.4,43.7 24.4,37.8 25.5,37.1 26.3,35.9 29.8,37.5 30.7,40.3 30.8,40.2 30.8,40.2 
			"/>
	<path id="XMLID_2428_" class="st0" d="M21.7,21.1L21.7,21.1l2.5,1.4l2.4-1.3l0-0.1c0,0,0,0-0.1,0c-0.2,0.1-0.6,0.2-1,0.3
		c-0.5,0.1-0.9,0.2-1.2,0.2c-0.4,0-1-0.1-1.5-0.3c-0.3-0.1-0.5-0.1-0.7-0.2C21.8,21.1,21.7,21,21.7,21.1L21.7,21.1L21.7,21.1
		L21.7,21.1c0,0.1,0.4,0.2,1,0.3c0.5,0.1,1.2,0.3,1.5,0.3c0.4,0,1-0.1,1.5-0.3c0.5-0.1,0.9-0.3,0.9-0.3l0-0.1l0,0l-2.3,1.3
		L21.7,21.1L21.7,21.1L21.7,21.1L21.7,21.1z"/>
	<path id="XMLID_2427_" class="st0" d="M23.4,37.2v1.5l-0.3,0c-1.1,0.6-2.9,1.8-3.4,1.9c-0.4,0-0.9-0.6-1-0.6
		c-0.1,0-0.1,0.2-0.1,0.2s0.9,1.3,1,1.4c0.1,0.1,0.3,0.1,0.5,0c0.2-0.1,2.1-1.5,4.1-1.5l0-2.5L23.4,37.2z"/>
	<path id="XMLID_2426_" class="st0" d="M25.1,37.2v1.5l0.3,0c1.1,0.6,2.9,1.8,3.4,1.9c0.4,0,0.9-0.6,1-0.6c0.1,0,0.1,0.2,0.1,0.2
		s-0.9,1.3-1,1.4c-0.1,0.1-0.3,0.1-0.5,0c-0.2-0.1-2.1-1.5-4.1-1.5l0-2.5L25.1,37.2z"/>
	<polygon id="XMLID_2425_" class="st0" points="21.9,34.1 21.9,34.9 22.6,35.5 23.4,36.6 24.2,37.2 25.1,36.6 25.8,35.5 26.6,34.9 
		26.6,34.1 25.1,34.7 24.2,34.7 23.4,34.7 	"/>
	<path id="XMLID_2422_" class="st0" d="M21.3,33.3v1.8l0.9,0.7L23,37l1.3,0.8l1.3-0.8l0.7-1.2l0.9-0.7v-1.8L25,34.1h-1.5L21.3,33.3z
		 M25,34.3l2-0.7v1.5l-0.9,0.6l-0.7,1.2l-1.2,0.8l-1.2-0.8l-0.7-1.2l-0.9-0.6v-1.5l2,0.7H25z"/>
	<path id="XMLID_2421_" class="st0" d="M22.2,27.6c0,0-0.3,0.1-0.6-0.2c-0.5-0.4-0.9-1.6-1.4-2c-0.7-0.5-1.9-0.2-1.9-0.2
		s1.2-0.6,2.1,0.1c0.3,0.2,0.5,0.7,0.8,1.2c0.1-1.1-0.6-1.6-0.6-1.6s0.5,0.3,0.7,0.9c0.1,0.5,0,0.7,0.2,1.3
		C21.6,27.4,22.2,27.6,22.2,27.6z"/>
	<path id="XMLID_2420_" class="st0" d="M15,24.2c0,0,0.9,1.2,3.8,0.4c-0.3,0.3-1.3,0.8-1.3,0.8s2-0.2,2.6,0.2c0.5,0.4,0.8,1.6,1.3,2
		c0.3,0.3,0.8,0.3,0.8,0.3s-0.6,0.1-1.2-0.4c-0.5-0.4-0.6-1.3-1.1-1.7c-0.3-0.2-0.9-0.4-1.4-0.3c0.8-0.2,1.5,0.3,1.5,0.3
		c0.6,0.5,0.6,1.6,1.1,1.8c-0.3-0.1-0.7-0.1-1-0.1l0,0c-0.3,0-0.7-0.1-1-0.3c-0.6-0.5-0.3-1.4-0.6-1.7c-0.6,0-1.2,0-1.2,0
		s1-0.5,1.1-0.7C15.7,25.4,15,24.2,15,24.2z"/>
	<path id="XMLID_2419_" class="st0" d="M26.3,27.6c0,0,0.3,0.1,0.6-0.2c0.5-0.4,0.9-1.6,1.4-2c0.7-0.5,1.9-0.2,1.9-0.2
		s-1.2-0.6-2.1,0.1c-0.3,0.2-0.5,0.7-0.8,1.2c-0.1-1.1,0.6-1.6,0.6-1.6s-0.5,0.3-0.7,0.9c-0.1,0.5,0,0.7-0.2,1.3
		C26.8,27.4,26.3,27.6,26.3,27.6z"/>
	<path id="XMLID_2418_" class="st0" d="M28,30.2c0.3,0,0.5-0.2,0.5-0.5c0-0.1,0-0.1,0-0.1l2.7-1.4l1.4-1.5c0.1,0,0.2,0.1,0.3,0.1
		c0.3,0,0.5-0.2,0.5-0.5c0-0.3-0.2-0.5-0.5-0.5c-0.3,0-0.5,0.2-0.5,0.5c0,0.1,0,0.2,0.1,0.3L31,28l-2.7,1.4
		c-0.1-0.1-0.2-0.2-0.4-0.2c-0.3,0-0.5,0.2-0.5,0.5S27.7,30.2,28,30.2z"/>
	<path id="XMLID_2417_" class="st0" d="M20.9,29.7c0-0.3-0.2-0.5-0.5-0.5c-0.2,0-0.3,0.1-0.4,0.2L17.4,28L16,26.5
		c0.1-0.1,0.1-0.2,0.1-0.3c0-0.3-0.2-0.5-0.5-0.5c-0.3,0-0.5,0.2-0.5,0.5c0,0.3,0.2,0.5,0.5,0.5c0.1,0,0.2,0,0.3-0.1l1.4,1.5
		l2.7,1.4c0,0,0,0.1,0,0.1c0,0.3,0.2,0.5,0.5,0.5C20.7,30.2,20.9,29.9,20.9,29.7z"/>
	<path id="XMLID_2413_" class="st0" d="M33.5,24.2c0,0-0.9,1.2-3.8,0.4c0.3,0.3,1.3,0.8,1.3,0.8s-2-0.2-2.6,0.2
		c-0.5,0.4-0.8,1.6-1.3,2c-0.3,0.3-0.8,0.3-0.8,0.3s0.6,0.1,1.2-0.4c0.5-0.4,0.6-1.3,1.1-1.7c0.3-0.2,0.9-0.4,1.4-0.3
		c-0.8-0.2-1.5,0.3-1.5,0.3c-0.6,0.5-0.6,1.6-1.1,1.8c0.3-0.1,0.7-0.1,1-0.1l0,0c0.3,0,0.7-0.1,1-0.3c0.6-0.5,0.3-1.4,0.6-1.7
		c0.6,0,1.2,0,1.2,0s-1-0.5-1.1-0.7C32.8,25.4,33.5,24.2,33.5,24.2z"/>
</g>
<g id="XMLID_2206_">
	<path id="XMLID_2225_" class="st0" d="M68,28.1c-0.3-1.2-1-2.1-2.1-2.6c-0.6-0.3-1.3-0.4-2.1-0.4c-1.5,0-2.6,0.5-3.6,1.6
		c-0.9,1.1-1.4,2.7-1.4,4.9c0,2.2,0.5,3.8,1.5,4.7c1,0.9,2.2,1.4,3.5,1.4c1.3,0,2.3-0.4,3.1-1.1c0.8-0.7,1.3-1.7,1.5-2.9h-4.2v-3
		h7.5v9.7h-2.5l-0.4-2.3c-0.7,0.9-1.4,1.5-2,1.8c-1,0.6-2.2,0.9-3.7,0.9c-2.4,0-4.4-0.8-5.9-2.5c-1.6-1.7-2.4-3.9-2.4-6.8
		c0-2.9,0.8-5.3,2.4-7c1.6-1.8,3.7-2.6,6.4-2.6c2.3,0,4.1,0.6,5.5,1.7c1.4,1.2,2.2,2.6,2.4,4.4H68z"/>
	<polygon id="XMLID_2224_" class="st0" points="88.7,25.7 79.2,25.7 79.2,29.5 88,29.5 88,32.6 79.2,32.6 79.2,37.3 89.2,37.3 
		89.2,40.5 75.5,40.5 75.5,22.5 88.7,22.5 	"/>
	<polygon id="XMLID_2223_" class="st0" points="105.5,25.7 95.9,25.7 95.9,29.5 104.7,29.5 104.7,32.6 95.9,32.6 95.9,37.3 
		105.9,37.3 105.9,40.5 92.2,40.5 92.2,22.5 105.5,22.5 	"/>
	<polygon id="XMLID_2222_" class="st0" points="108.9,22.5 112.6,22.5 112.6,29.9 119.6,22.5 124.5,22.5 117.1,29.9 124.9,40.5 
		120,40.5 114.4,32.6 112.6,34.5 112.6,40.5 108.9,40.5 	"/>
	<path id="XMLID_2221_" class="st0" d="M129.7,34.9c0.1,0.8,0.3,1.4,0.7,1.8c0.6,0.7,1.7,1.1,3.2,1.1c0.9,0,1.6-0.1,2.2-0.3
		c1.1-0.4,1.6-1.1,1.6-2.1c0-0.6-0.3-1.1-0.8-1.4c-0.5-0.3-1.4-0.6-2.5-0.8l-2-0.4c-1.9-0.4-3.2-0.9-4-1.4c-1.2-0.8-1.8-2.1-1.8-3.9
		c0-1.6,0.6-3,1.8-4c1.2-1.1,2.9-1.6,5.2-1.6c1.9,0,3.6,0.5,4.9,1.5c1.4,1,2.1,2.5,2.1,4.4h-3.6c-0.1-1.1-0.6-1.9-1.5-2.3
		c-0.6-0.3-1.4-0.5-2.2-0.5c-1,0-1.8,0.2-2.4,0.6c-0.6,0.4-0.9,0.9-0.9,1.6c0,0.6,0.3,1.1,0.9,1.4c0.4,0.2,1.2,0.5,2.4,0.7l3.2,0.7
		c1.4,0.3,2.4,0.8,3.1,1.3c1.1,0.8,1.6,2.1,1.6,3.7c0,1.6-0.6,3-1.9,4.1c-1.3,1.1-3.1,1.6-5.4,1.6c-2.4,0-4.2-0.5-5.6-1.6
		c-1.4-1.1-2-2.5-2-4.4H129.7z"/>
	<path id="XMLID_2220_" class="st0" d="M152.4,24.3c1.5-1.5,3.3-2.2,5.5-2.2c3,0,5.2,1,6.6,3c0.8,1.1,1.2,2.2,1.2,3.4H162
		c-0.2-0.9-0.5-1.5-0.9-2c-0.7-0.8-1.7-1.2-3-1.2c-1.3,0-2.4,0.6-3.2,1.7c-0.8,1.1-1.2,2.7-1.2,4.7c0,2,0.4,3.5,1.2,4.6
		c0.8,1,1.9,1.5,3.1,1.5c1.3,0,2.3-0.4,3-1.3c0.4-0.5,0.7-1.2,0.9-2.1h3.7c-0.3,2-1.1,3.6-2.5,4.8c-1.3,1.2-3,1.8-5.1,1.8
		c-2.6,0-4.6-0.8-6.1-2.5c-1.5-1.7-2.2-4-2.2-6.9C149.9,28.5,150.7,26.1,152.4,24.3z"/>
	<path id="XMLID_2217_" class="st0" d="M173.9,22.5h4.3l6.4,18.1h-4.1l-1.2-3.7h-6.6l-1.2,3.7h-3.9L173.9,22.5z M173.7,33.7h4.6
		l-2.3-7.1L173.7,33.7z"/>
	<path id="XMLID_2214_" class="st0" d="M199,32.7c-1.1,0.9-2.6,1.3-4.5,1.3h-3.8v6.5H187V22.5h7.8c1.8,0,3.2,0.5,4.3,1.4
		c1.1,0.9,1.6,2.4,1.6,4.3C200.6,30.3,200.1,31.8,199,32.7z M196.1,26.2c-0.5-0.4-1.1-0.6-2-0.6h-3.4v5.3h3.4c0.9,0,1.5-0.2,2-0.6
		c0.5-0.4,0.7-1.1,0.7-2.1C196.9,27.3,196.6,26.6,196.1,26.2z"/>
	<rect id="XMLID_2213_" x="203.3" y="22.5" class="st0" width="3.7" height="18.1"/>
	<polygon id="XMLID_2212_" class="st0" points="223.7,22.5 223.7,25.7 218.3,25.7 218.3,40.5 214.5,40.5 214.5,25.7 209.1,25.7 
		209.1,22.5 	"/>
	<path id="XMLID_2209_" class="st0" d="M229.3,22.5h4.3l6.4,18.1h-4.1l-1.2-3.7H228l-1.2,3.7h-3.9L229.3,22.5z M229,33.7h4.6
		l-2.3-7.1L229,33.7z"/>
	<polygon id="XMLID_2208_" class="st0" points="242.2,22.5 246,22.5 246,37.3 255,37.3 255,40.5 242.2,40.5 	"/>
	<path id="XMLID_2207_" class="st0" d="M147.8,39.1c0,1.1-0.9,2-2,2c-1.1,0-2-0.9-2-2c0-1.1,0.9-2,2-2
		C146.9,37.1,147.8,38,147.8,39.1z"/>
</g>
<g>
</g>
<g>
</g>
<g>
</g>
<g>
</g>
<g>
</g>
<g>
</g>
<g>
</g>
<g>
</g>
<g>
</g>
<g>
</g>
<g>
</g>
</svg>
