<?xml version="1.0" encoding="utf-8"?>
<!-- Generator: Adobe Illustrator 23.1.0, SVG Export Plug-In . SVG Version: 6.00 Build 0)  -->
<svg version="1.1" id="Layer_1" xmlns="http://www.w3.org/2000/svg" xmlns:xlink="http://www.w3.org/1999/xlink" x="0px" y="0px"
	 viewBox="0 0 1024 1024" style="enable-background:new 0 0 1024 1024;" xml:space="preserve">
<style type="text/css">
	.st0{fill:#003B71;}
</style>
<g id="XMLID_2202_">
</g>
<g id="XMLID_2203_">
	<polygon id="XMLID_2546_" class="st0" points="509.3,305.2 518.2,331.9 546.3,332 523.6,348.7 532.2,375.4 509.3,359 486.5,375.4 
		495.1,348.7 472.4,332 500.6,331.9 	"/>
	<path id="XMLID_2535_" class="st0" d="M479.3,531.6l-1.9-1l-4,1.2L453,560.5l12.3,5.3l19.5-28.3l-1.4-3.9l-1.1-0.5l9.1-11.7V404.9
		c4.6-0.8,8.1-4.8,8.1-9.6c0-5.4-4.4-9.7-9.7-9.7c-5.4,0-9.7,4.4-9.7,9.7c0,4.8,3.5,8.8,8.1,9.6v115.4L479.3,531.6z"/>
	<path id="XMLID_2534_" class="st0" d="M251,418.6l52.3-152c0.5,0.1,1.1,0.1,1.6,0.1c5.4,0,9.7-4.4,9.7-9.7c0-5.4-4.4-9.7-9.7-9.7
		c-5.4,0-9.7,4.4-9.7,9.7c0,3.7,2.1,6.9,5.1,8.5l-52.2,151.6l-97.7,136.8c-1.3-0.7-2.8-1.1-4.4-1.1c-5.4,0-9.7,4.4-9.7,9.7
		s4.4,9.7,9.7,9.7c5.4,0,9.7-4.4,9.7-9.7c0-2.6-1.1-5-2.8-6.8l97.9-137L251,418.6z"/>
	<path id="XMLID_2533_" class="st0" d="M258.3,453.9l-2.7-1.8l-43.6,66l-30.9,35.3c-1.5-0.9-3.2-1.5-5.1-1.5c-5.4,0-9.7,4.4-9.7,9.7
		c0,5.4,4.4,9.7,9.7,9.7c5.4,0,9.7-4.4,9.7-9.7c0-2.3-0.8-4.5-2.2-6.2l31-35.4L258.3,453.9z"/>
	<path id="XMLID_2532_" class="st0" d="M160.8,702l-19.4,51.2l5.4,51l48.3,49.4l40.1,24.2h79.5c0.8,4.6,4.8,8.1,9.6,8.1
		c5.4,0,9.7-4.4,9.7-9.7c0-5.4-4.4-9.7-9.7-9.7c-4.8,0-8.8,3.5-9.6,8.1h-78.7l-38.9-23.4l-47.4-48.5l-5.2-49.1l18.9-50l54.4-66.7
		l10.4-61l2.2,0.4l4.2-2.6l6.3-32.6l-13.9-2.7l-6.3,32.6l2.7,3.9l1.7,0.3L215,635.6l-54.1,66.2L160.8,702z"/>
	<path id="XMLID_2531_" class="st0" d="M160.8,702l-1.1-0.4L140.2,753l5.5,51.7l48.7,49.8l40.5,24.4h79.9v-1.2l-1.2,0.2
		c0.9,5.2,5.3,9.1,10.7,9.1c6,0,10.9-4.9,10.9-10.9c0-6-4.9-10.9-10.9-10.9c-5.4,0-9.9,3.9-10.7,9.1l1.2,0.2v-1.2h-78.3L198,850.3
		l-47-48.1l-5.2-48.4l18.8-49.6l54.5-66.8l10.3-60.1l1,0.2l0.5,0.1l5-3.1l6.6-34.3l-16.2-3.1l-6.6,34.2l3.3,4.7l1.1,0.2l-10,58.7
		l-53.9,66l-0.2,0.2l-0.1,0.1l-0.1,0.2L160.8,702l0.9,0.7l0.2-0.2l54.3-66.5l10.5-61.6l-2.4-0.5l-2.1-3.1l6-30.9l11.6,2.2l-6,30.9
		l-3.3,2.1l-1.7-0.3l-1.2-0.2l-10.6,61.8L162.5,703l-19.1,50.4l5.3,49.8l47.8,48.9l39.3,23.6h80l0.2-1c0.7-4,4.2-7.1,8.4-7.1
		c4.7,0,8.5,3.8,8.5,8.5c0,4.7-3.8,8.5-8.5,8.5c-4.2,0-7.7-3.1-8.4-7.1l-0.2-1h-80.2l-39.7-23.9l-47.9-49l-5.4-50.3l19.3-50.9
		L160.8,702l0.9,0.7L160.8,702z"/>
	<polygon id="XMLID_2530_" class="st0" points="361.2,720.7 361.2,660.4 291.9,600.4 289.9,602.8 358,661.9 358,720.7 	"/>
	<path id="XMLID_2526_" class="st0" d="M339.6,302.3c-0.5-0.1-1.1-0.1-1.6-0.1c-6.7,0-12.1,5.4-12.1,12.1c0,6.7,5.4,12.1,12.1,12.1
		c6.7,0,12.1-5.4,12.1-12.1c0-5-3-9.3-7.4-11.2l27-128.1l88.9-43.7c2.1,3.4,5.9,5.7,10.2,5.7c6.7,0,12.1-5.4,12.1-12.1
		c0-6.7-5.4-12.1-12.1-12.1c-6.7,0-12.1,5.4-12.1,12.1c0,1.2,0.2,2.4,0.5,3.6l-90.4,44.4L339.6,302.3z M345.3,314.2
		c0,4-3.3,7.3-7.3,7.3c-4,0-7.3-3.3-7.3-7.3c0-4,3.3-7.3,7.3-7.3C342,306.9,345.3,310.2,345.3,314.2z M468.9,117.6
		c4,0,7.3,3.3,7.3,7.3c0,4-3.3,7.3-7.3,7.3c-4,0-7.3-3.3-7.3-7.3C461.5,120.8,464.8,117.6,468.9,117.6z"/>
	<path id="XMLID_2525_" class="st0" d="M462.9,178.1l0.5,0c5.4,0,9.7-4.4,9.7-9.7c0-5.4-4.4-9.7-9.7-9.7c-5.4,0-9.7,4.4-9.7,9.7
		c0,4.1,2.5,7.6,6.1,9l-11.9,54.4l-61.9,48.3c-1.7-1.6-4-2.6-6.6-2.6c-5.4,0-9.7,4.4-9.7,9.7s4.4,9.7,9.7,9.7c5.4,0,9.7-4.4,9.7-9.7
		c0-1.7-0.4-3.3-1.2-4.6l62.8-49L462.9,178.1z"/>
	<path id="XMLID_2524_" class="st0" d="M521.8,453c0-5.4-4.4-9.7-9.7-9.7c-5.4,0-9.7,4.4-9.7,9.7c0,4.8,3.5,8.8,8.1,9.6v78h-2
		l-3.6,3.3v33.2h14.2v-33.2l-3.4-3.3h-2v-78C518.3,461.8,521.8,457.8,521.8,453z"/>
	<path id="XMLID_2521_" class="st0" d="M489.7,284.9c-4.5,0-8.4,2.5-10.5,6.1L456,270.7l-27.4,33.7v35.4l25.6,21.9
		c-0.3,1-0.5,2.1-0.5,3.2c0,5.4,4.4,9.7,9.7,9.7c5.4,0,9.7-4.4,9.7-9.7s-4.4-9.7-9.7-9.7c-3.1,0-5.8,1.4-7.6,3.7l-23.9-20.5v-32.8
		l24.6-30.2l21.6,18.8c-0.2,0.9-0.4,1.9-0.4,2.9c0,6.7,5.4,12.1,12.1,12.1c6.7,0,12.1-5.4,12.1-12.1
		C501.8,290.3,496.4,284.9,489.7,284.9z M489.7,304.3c-4,0-7.3-3.3-7.3-7.3c0-4,3.3-7.3,7.3-7.3c4,0,7.3,3.3,7.3,7.3
		C497.1,301,493.8,304.3,489.7,304.3z"/>
	<path id="XMLID_2520_" class="st0" d="M304.9,357c-5.4,0-9.7,4.4-9.7,9.7c0,5.4,4.4,9.7,9.7,9.7c4.8,0,8.8-3.5,9.6-8.1h38.1
		l29.9-40.3c1.7,1.6,4.1,2.6,6.6,2.6c0.6,0,1.2-0.1,1.7-0.2l14,38.9l39.1,16.4c-0.4,1.1-0.7,2.3-0.7,3.5c0,5.4,4.4,9.7,9.7,9.7
		c5.4,0,9.7-4.4,9.7-9.7c0-5.4-4.4-9.7-9.7-9.7c-3,0-5.6,1.3-7.4,3.4l-38.2-16l-13.6-37.6c3-1.7,5-4.8,5-8.5c0-5.4-4.4-9.7-9.7-9.7
		c-5.4,0-9.7,4.4-9.7,9.7c0,1.6,0.4,3.1,1.1,4.4L351,365.1h-36.5C313.7,360.5,309.7,357,304.9,357z"/>
	<path id="XMLID_2517_" class="st0" d="M307.3,399c0-6.7-5.4-12.1-12.1-12.1c-6.7,0-12.1,5.4-12.1,12.1c0,6.7,5.4,12.1,12.1,12.1
		c0.6,0,1.3-0.1,1.9-0.2l11.7,34.8l34.5,45.9l57.8,29.5v15.7l-14,26.6c-1.2-0.5-2.4-0.7-3.7-0.7c-5.4,0-9.7,4.4-9.7,9.7
		c0,5.4,4.4,9.7,9.7,9.7c5.4,0,9.7-4.4,9.7-9.7c0-2.9-1.3-5.5-3.3-7.3l14.5-27.5v-18.4l-58.9-30.1l-33.8-44.9L300.1,410
		C304.4,408.1,307.3,403.9,307.3,399z M295.2,406.3c-4,0-7.3-3.3-7.3-7.3c0-4,3.3-7.3,7.3-7.3c4,0,7.3,3.3,7.3,7.3
		C302.5,403,299.2,406.3,295.2,406.3z"/>
	<path id="XMLID_2516_" class="st0" d="M346.7,582c0,5.4,4.4,9.7,9.7,9.7c5.4,0,9.7-4.4,9.7-9.7s-4.4-9.7-9.7-9.7
		c-3.5,0-6.5,1.8-8.2,4.6l-75.6-37.4l11.2-79.8c0.5,0.1,1.1,0.2,1.7,0.2c5.4,0,9.7-4.4,9.7-9.7c0-5.4-4.4-9.7-9.7-9.7
		c-5.4,0-9.7,4.4-9.7,9.7c0,3.6,2,6.8,5,8.5l-11.6,82.7l77.9,38.6C346.8,580.6,346.7,581.3,346.7,582z"/>
	<path id="XMLID_2515_" class="st0" d="M318.1,210.4c5.4,0,9.7-4.4,9.7-9.7c0-5.4-4.4-9.7-9.7-9.7c-3.1,0-5.8,1.4-7.6,3.6l-46.6-15
		l-55,8.8L153.5,224v31.4l42.1,42.2c-1.4,1.7-2.3,3.9-2.3,6.3c0,5.4,4.4,9.7,9.7,9.7c5.4,0,9.7-4.4,9.7-9.7c0-5.4-4.4-9.7-9.7-9.7
		c-1.8,0-3.5,0.5-4.9,1.4L156.7,254v-28.3l53.3-34.2l53.6-8.6l45.3,14.5c-0.4,1-0.6,2.1-0.6,3.3
		C308.4,206.1,312.7,210.4,318.1,210.4z"/>
	<path id="XMLID_2514_" class="st0" d="M318.1,210.4v2.4c6.7,0,12.1-5.4,12.1-12.1c0-6.7-5.4-12.1-12.1-12.1c-3.8,0-7.2,1.8-9.4,4.5
		l1.8,1.5l0.7-2.3l-47.2-15.1l-56.1,9l-56.8,36.5v33.6l42.8,42.9l1.7-1.7l-1.8-1.5c-1.8,2.1-2.9,4.8-2.9,7.8
		c0,6.7,5.4,12.1,12.1,12.1c6.7,0,12.1-5.4,12.1-12.1c0-6.7-5.4-12.1-12.1-12.1c-2.2,0-4.3,0.6-6.1,1.7l1.2,2l1.7-1.7l-40.6-40.8
		v-26l51.8-33.3l52.6-8.4l44.8,14.4l0.7-2.3l-2.2-0.8c-0.4,1.3-0.7,2.6-0.7,4.1c0,6.7,5.4,12.1,12.1,12.1V210.4v-2.4
		c-4.1,0-7.4-3.3-7.4-7.4c0-0.9,0.2-1.7,0.4-2.5l0.8-2.3l-48.2-15.5l-54.7,8.8l-54.8,35.2V255l43.3,43.5l1.6-0.9
		c1.1-0.7,2.4-1,3.7-1c4.1,0,7.4,3.3,7.4,7.4c0,4.1-3.3,7.3-7.4,7.4c-4.1,0-7.4-3.3-7.4-7.4c0-1.8,0.7-3.5,1.8-4.8l1.4-1.7
		l-42.9-43.1v-29.1l53.8-34.6l54-8.7l47.6,15.3l1-1.3c1.4-1.7,3.4-2.7,5.7-2.7c4.1,0,7.4,3.3,7.4,7.4c0,4.1-3.3,7.3-7.4,7.4V210.4z"
		/>
	<path id="XMLID_2513_" class="st0" d="M107.8,349.8c0,5.4,4.4,9.7,9.7,9.7c3.7,0,7-2.1,8.6-5.2l15.2,7.1l35-0.9l53-22l43.1-76.5
		c1,0.4,2.1,0.6,3.3,0.6c5.4,0,9.7-4.4,9.7-9.7c0-5.4-4.4-9.7-9.7-9.7c-5.4,0-9.7,4.4-9.7,9.7c0,3.1,1.4,5.8,3.6,7.6L227.1,336
		l-51.4,21.3l-33.7,0.9l-14.8-6.9c0.1-0.5,0.1-1,0.1-1.5c0-5.4-4.4-9.7-9.7-9.7C112.2,340.1,107.8,344.4,107.8,349.8z"/>
	<path id="XMLID_2512_" class="st0" d="M224,847.6c5.4,0,9.7-4.4,9.7-9.7s-4.4-9.7-9.7-9.7c-2.4,0-4.6,0.9-6.3,2.3L194.5,808
		l-9.4-46l15.7-44.4l38.6-41.3c1.5,1,3.4,1.6,5.4,1.6c5.4,0,9.7-4.4,9.7-9.7c0-5.4-4.4-9.7-9.7-9.7c-5.4,0-9.7,4.4-9.7,9.7
		c0,2.2,0.8,4.3,2,5.9l-39.1,41.8l-16.2,45.9l9.8,47.8l24,23.3c-0.9,1.5-1.4,3.1-1.4,5C214.2,843.3,218.6,847.6,224,847.6z"/>
	<path id="XMLID_2511_" class="st0" d="M224,847.6v1.2c6,0,10.9-4.9,10.9-10.9c0-6-4.9-10.9-10.9-10.9c-2.7,0-5.2,1-7.1,2.6l0.8,0.9
		l0.8-0.8l-22.9-22.2l-9.3-45.3l15.5-43.9l38.5-41.2l-0.9-0.8l-0.7,1c1.7,1.1,3.8,1.8,6,1.8c6,0,10.9-4.9,10.9-10.9
		c0-6-4.9-10.9-10.9-10.9c-6,0-10.9,4.9-10.9,10.9c0,2.5,0.9,4.8,2.3,6.6l0.9-0.7l-0.9-0.8l-39.3,42l-16.4,46.4l9.9,48.5l24.3,23.6
		l0.8-0.8l-1-0.6c-1,1.6-1.5,3.5-1.5,5.6c0,6,4.9,10.9,10.9,10.9V847.6v-1.2c-4.7,0-8.5-3.8-8.5-8.5c0-1.6,0.4-3.1,1.2-4.4l0.5-0.8
		L192.7,809l-9.6-47.1l16-45.3l39.6-42.4l-0.6-0.8c-1.1-1.4-1.8-3.2-1.8-5.2c0-4.7,3.8-8.5,8.5-8.5c4.7,0,8.5,3.8,8.5,8.5
		c0,4.7-3.8,8.5-8.5,8.5c-1.7,0-3.4-0.5-4.7-1.4l-0.8-0.6L199.8,717L183.9,762l9.5,46.6l24.2,23.5l0.8-0.7c1.5-1.3,3.4-2,5.5-2
		c4.7,0,8.5,3.8,8.5,8.5c0,4.7-3.8,8.5-8.5,8.5V847.6z"/>
	<path id="XMLID_2510_" class="st0" d="M266,847.6c5.4,0,9.7-4.4,9.7-9.7s-4.4-9.7-9.7-9.7c-2.9,0-5.6,1.3-7.4,3.4l-23.6-17
		l-9.5-43.8l11-48l35.8-45.4v-70.7h1.9l3.6-3.3v-33.2h-14.2v33.2l3.4,3.3h2.1v69.6l-35.6,45.1l-11.3,49.4l9.9,45.7l24.8,17.9
		c-0.4,1.1-0.7,2.3-0.7,3.6C256.3,843.3,260.7,847.6,266,847.6z"/>
	<path id="XMLID_2509_" class="st0" d="M266,847.6v1.2c6,0,10.9-4.9,10.9-10.9c0-6-4.9-10.9-10.9-10.9c-3.3,0-6.3,1.5-8.2,3.8
		l0.9,0.8l0.7-1l-23.2-16.8l-9.4-43.1l10.9-47.5l35.9-45.5v-69.9h0.7h0.5l4.3-4v-34.9h-16.5v34.9l4.1,4h1.4v68l-35.5,45l-11.5,49.9
		l10.1,46.4l25.1,18.2l0.7-1l-1.1-0.4c-0.5,1.2-0.8,2.6-0.8,4.1c0,6,4.9,10.9,10.9,10.9V847.6v-1.2c-4.7,0-8.5-3.8-8.5-8.5
		c0-1.1,0.2-2.2,0.6-3.2l0.3-0.9l-25.1-18.2l-9.8-45l11.2-48.9l35.7-45.2v-71.2h-2.8l-2.7-2.6v-31.5h11.8l0,31.5l-2.9,2.7h-1.4h-1.2
		v71.5l-35.7,45.3l-11.1,48.6l9.7,44.5l24.8,17.9l0.7-0.8c1.6-1.8,3.9-3,6.5-3c4.7,0,8.5,3.8,8.5,8.5c0,4.7-3.8,8.5-8.5,8.5V847.6z"
		/>
	<path id="XMLID_2508_" class="st0" d="M277.9,712.5c5.4,0,9.7-4.4,9.7-9.7c0-5.4-4.4-9.7-9.7-9.7c-5.4,0-9.7,4.4-9.7,9.7
		c0,3.3,1.6,6.2,4.2,8l-10.5,22.3l2.6,62.3l37.4,37.4c-0.9,1.5-1.4,3.2-1.4,5.1c0,5.4,4.4,9.7,9.7,9.7c5.4,0,9.7-4.4,9.7-9.7
		s-4.4-9.7-9.7-9.7c-2.3,0-4.5,0.8-6.2,2.2L267.6,794l-2.5-60.3l10.2-21.6C276.1,712.4,277,712.5,277.9,712.5z"/>
	<path id="XMLID_2505_" class="st0" d="M362.4,917.6c5.4,0,9.7-4.4,9.7-9.7c0-5.4-4.4-9.7-9.7-9.7c-4.8,0-8.8,3.5-9.6,8.1h-119
		l-51.8-9.5l-51.5-43.1l-21-59.2l5.3-55.5l29.6-51.3l42.2-68.7l1.9,1.1l4.8-1l16.7-28.7l-12.2-7.1L181,611.9l1.3,4.6l1.5,0.9
		L141.6,686l-29,50.3l-19.2-10.8l-7.7-38.8v-31.3l18.6-30.3c1.1,0.5,2.4,0.7,3.6,0.7c5.4,0,9.7-4.4,9.7-9.7s-4.4-9.7-9.7-9.7
		c-5.4,0-9.7,4.4-9.7,9.7c0,2.9,1.3,5.6,3.4,7.3l-19,31.1v32.4l8.1,40.7l20.9,11.8l-5,52.4L66.3,763l-15.8-39.8L49.8,687l10.6-57.5
		l33.9-66.9l83-95.7l55.1-85.2c0.9,0.2,1.8,0.3,2.8,0.3c6.7,0,12.1-5.4,12.1-12.1c0-6.7-5.4-12.1-12.1-12.1
		c-6.7,0-12.1,5.4-12.1,12.1c0,4.6,2.5,8.5,6.3,10.6l-54.6,84.4l-83,95.8l-0.1,0.1l-32.5,64.1l-15.6-43.1l-1.4-53.5l17.7-36.6
		l17.3-12.1c1.8,1.8,4.2,2.9,6.9,2.9c5.4,0,9.7-4.4,9.7-9.7c0-5.4-4.4-9.7-9.7-9.7c-5.4,0-9.7,4.4-9.7,9.7c0,1.5,0.3,2.9,1,4.2
		l-18,12.5L39,527.5l1.4,54.8l16.9,46.8l-9.6,51.8l-37.3-98.5v-54.5l23.2-50.3l41-39.6l72.4-21.7c1.6,3.2,4.9,5.4,8.7,5.4
		c5.4,0,9.7-4.4,9.7-9.7c0-5.4-4.4-9.7-9.7-9.7c-5.4,0-9.7,4.4-9.7,9.7c0,0.4,0,0.8,0.1,1.2l-27,8.1l-3.3-28.2l-26.2-31.7
		c1.5-1.7,2.4-3.9,2.4-6.4c0-5.4-4.4-9.7-9.7-9.7c-5.4,0-9.7,4.4-9.7,9.7c0,5.4,4.4,9.7,9.7,9.7c1.8,0,3.4-0.5,4.9-1.3l25.6,31
		l3.3,27.8l-42.7,12.8l-0.4,0.1l-42,40.6L7.2,527.2V583l39.4,104.1l0.7,36.7l16.4,41.3l42.8,30.6l21.3,59.9l52.9,44.2l52.7,9.7
		l0.1,0h119.3C353.6,914.1,357.6,917.6,362.4,917.6z M235.1,362.5c4,0,7.3,3.3,7.3,7.3c0,4-3.3,7.3-7.3,7.3c-4,0-7.3-3.3-7.3-7.3
		C227.8,365.8,231.1,362.5,235.1,362.5z"/>
	<path id="XMLID_2495_" class="st0" d="M362.4,917.6v1.2c6,0,10.9-4.9,10.9-10.9c0-6-4.9-10.9-10.9-10.9c-5.4,0-9.9,3.9-10.7,9.1
		l1.2,0.2v-1.2H233.9l-51.4-9.4L131.5,853l-20.8-58.6l5.2-55l29.5-51.1l41.6-67.7l0.9,0.5l0.4,0.2l5.7-1.3l17.6-30.1l-14.3-8.3
		l-17.6,30.1l1.5,5.5l0.9,0.5l-41.5,67.7l-28.5,49.3l-17.7-10l-7.6-38.2v-30.9l18.4-30l-1-0.6l-0.4,1.1c1.3,0.5,2.6,0.8,4.1,0.8
		c6,0,10.9-4.9,10.9-10.9c0-6-4.9-10.9-10.9-10.9c-6,0-10.9,4.9-10.9,10.9c0,3.3,1.5,6.2,3.8,8.2l0.8-0.9l-1-0.6l-19.2,31.4v32.9
		l8.2,41.4l20.7,11.7l-4.7,49.6l-38.3-27.3l-15.6-39.3L51,687.1l10.5-57.3l33.8-66.6l82.9-95.7l55.2-85.3l-1-0.6l-0.3,1.1
		c1,0.2,2,0.4,3.1,0.4c7.3,0,13.3-6,13.3-13.3c0-7.3-6-13.3-13.3-13.3c-7.3,0-13.3,6-13.3,13.3c0,5,2.8,9.4,6.9,11.6l0.6-1l-1-0.6
		l-54.5,84.3l-83,95.7l-0.1,0.1l-0.1,0.1l-31.3,61.8l-14.6-40.4l-1.3-53.1l17.4-36.1l17-11.9l-0.7-1l-0.8,0.8c2,2,4.7,3.3,7.8,3.3
		c6,0,10.9-4.9,10.9-10.9c0-6-4.9-10.9-10.9-10.9c-6,0-10.9,4.9-10.9,10.9c0,1.7,0.4,3.3,1.1,4.7l1.1-0.5l-0.7-1l-18.2,12.7
		l-18.6,38.6l1.4,55.3L56,629.3l-8.7,47.3l-35.7-94.3l0-54l23-49.8l40.7-39.3l72.1-21.7l-0.3-1.1l-1.1,0.5c1.8,3.6,5.5,6.1,9.8,6.1
		c6,0,10.9-4.9,10.9-10.9c0-6-4.9-10.9-10.9-10.9c-6,0-10.9,4.9-10.9,10.9c0,0.5,0,0.9,0.1,1.4l1.2-0.1l-0.3-1.1l-25.6,7.7
		l-3.2-27.1l-26.4-31.9l-0.9,0.8l0.9,0.8c1.7-1.9,2.7-4.4,2.7-7.1c0-6-4.9-10.9-10.9-10.9c-6,0-10.9,4.9-10.9,10.9
		c0,6,4.9,10.9,10.9,10.9c2,0,3.9-0.5,5.5-1.5l-0.6-1l-0.9,0.8l25.4,30.7l3.1,26.5L73,434l-0.4,0.1l-0.3,0.1l-42.4,40.9L6,527v56.3
		l39.4,104.1l0.7,36.7l16.6,41.8l42.8,30.6l21.3,59.8l53.3,44.6l53.1,9.7h0l0.1,0l0.1,0h119.4v-1.2l-1.2,0.2
		c0.9,5.2,5.3,9.1,10.7,9.1V917.6v-1.2c-4.2,0-7.7-3.1-8.4-7.1l-0.2-1H233.6l0,0h0l-52.4-9.6l-52.4-43.8l-21.3-59.9l-42.9-30.6
		l-16.2-40.7l-0.7-36.7L8.4,582.8l0-55.3l23.5-51l41.7-40.2l0.1,0l43.6-13.1l-3.4-29.1l-26.5-32l-0.9,0.5c-1.3,0.7-2.7,1.2-4.3,1.2
		c-4.7,0-8.5-3.8-8.5-8.5c0-4.7,3.8-8.5,8.5-8.5c4.7,0,8.5,3.8,8.5,8.5c0,2.1-0.8,4.1-2.1,5.6l-0.7,0.8l26.6,32.2l3.4,29.2l29.3-8.8
		l-0.1-1c0-0.4-0.1-0.7-0.1-1.1c0-4.7,3.8-8.5,8.5-8.5c4.7,0,8.5,3.8,8.5,8.5c0,4.7-3.8,8.5-8.5,8.5c-3.4,0-6.3-1.9-7.7-4.8
		l-0.4-0.9L74,437l-41.4,40L9.2,527.7v55l38.9,102.6l10.4-56.2l-16.9-46.9l-1.4-54.4l18.1-37.5l18.5-12.9l-0.4-0.9
		c-0.5-1.1-0.8-2.4-0.8-3.7c0-4.7,3.8-8.5,8.5-8.5c4.7,0,8.5,3.8,8.5,8.5c0,4.7-3.8,8.5-8.5,8.5c-2.4,0-4.5-1-6.1-2.6l-0.7-0.7
		l-18.3,12.8L41,527.9l1.4,54l16.6,45.9l33.7-66.4l0,0l83.1-95.8L231,380l-1.1-0.6c-3.4-1.9-5.7-5.5-5.7-9.6c0-3,1.2-5.7,3.2-7.7
		c2-2,4.7-3.2,7.7-3.2c3,0,5.7,1.2,7.7,3.2c2,2,3.2,4.7,3.2,7.7c0,3-1.2,5.7-3.2,7.7c-2,2-4.7,3.2-7.7,3.2c-0.9,0-1.7-0.1-2.5-0.3
		l-0.8-0.2l-55.5,85.8l-83,95.8l-34,67.1l-10.6,57.8l0.7,36.6l16,40.4l42.2,30.1l5.2-55.2l-21.1-11.9l-8-40.1v-32l19.4-31.7
		l-0.8-0.7c-1.8-1.6-2.9-3.9-2.9-6.4c0-4.7,3.8-8.5,8.5-8.5c4.7,0,8.5,3.8,8.5,8.5c0,4.7-3.8,8.5-8.5,8.5c-1.1,0-2.2-0.2-3.2-0.6
		l-0.9-0.4L84.5,655v31.8l7.9,39.5l20.7,11.7l29.6-51.3l42.8-69.7l-2.2-1.3l-1-3.6l15.9-27.2l10.2,6L192.5,618l-3.8,0.8l-1.5-0.9
		l-1-0.6l-42.8,69.7l-29.8,51.6l-5.3,56l21.2,59.7l52,43.5l52.2,9.6h120.1l0.2-1c0.7-4,4.2-7.1,8.4-7.1c4.7,0,8.5,3.8,8.5,8.5
		c0,4.7-3.8,8.5-8.5,8.5V917.6z M235.1,362.5v1.2c3.4,0,6.1,2.8,6.1,6.1c0,3.4-2.8,6.1-6.1,6.1c-3.4,0-6.1-2.8-6.1-6.1
		c0-3.4,2.8-6.1,6.1-6.1V362.5v-1.2c-4.7,0-8.5,3.8-8.5,8.5c0,4.7,3.8,8.5,8.5,8.5c4.7,0,8.5-3.8,8.5-8.5c0-4.7-3.8-8.5-8.5-8.5
		V362.5z"/>
	<path id="XMLID_2494_" class="st0" d="M451.9,963.2c0,5.4,4.4,9.7,9.7,9.7c5.4,0,9.7-4.4,9.7-9.7c0-5.4-4.4-9.7-9.7-9.7
		c-0.8,0-1.7,0.1-2.4,0.3l-24.8-47.3l-0.1-0.3L291.6,785.9v-63.5l13.4-21.1c1.5,0.9,3.2,1.5,5.1,1.5c5.4,0,9.7-4.4,9.7-9.7
		c0-5.4-4.4-9.7-9.7-9.7c-5.4,0-9.7,4.4-9.7,9.7c0,2.3,0.8,4.4,2.2,6.1l-14.2,22.3v65.9l143.3,120.9l24.5,46.8
		C453.6,956.9,451.9,959.9,451.9,963.2z"/>
	<path id="XMLID_2491_" class="st0" d="M480.9,951.9c5.4,0,9.7-4.4,9.7-9.7c0-5.4-4.4-9.7-9.7-9.7c-1,0-2,0.2-2.9,0.4l-20.5-40.6
		l-0.1-0.3L339.4,781.1l-9.8-48.4c3.8-2,6.4-6.1,6.4-10.7c0-6.7-5.4-12.1-12.1-12.1c-6.7,0-12.1,5.4-12.1,12.1
		c0,6.7,5.4,12.1,12.1,12.1c0.9,0,1.8-0.1,2.7-0.3l9.9,48.9l118.4,111.2l20.3,40.4c-2.4,1.8-4,4.6-4,7.8
		C471.2,947.5,475.6,951.9,480.9,951.9z M316.6,722c0-4,3.3-7.3,7.3-7.3c4,0,7.3,3.3,7.3,7.3c0,4-3.3,7.3-7.3,7.3
		C319.9,729.3,316.6,726,316.6,722z"/>
	<path id="XMLID_2490_" class="st0" d="M389.1,789c-5.4,0-9.7,4.4-9.7,9.7s4.4,9.7,9.7,9.7c2.2,0,4.2-0.7,5.9-2l68.3,64.4
		c-1,1.5-1.6,3.4-1.6,5.4c0,5.4,4.4,9.7,9.7,9.7c5.4,0,9.7-4.4,9.7-9.7c0-5.4-4.4-9.7-9.7-9.7c-2.2,0-4.2,0.7-5.9,2l-68.3-64.4
		c1-1.5,1.6-3.4,1.6-5.4C398.8,793.3,394.4,789,389.1,789z"/>
	<path id="XMLID_2487_" class="st0" d="M511.7,958.2c-12.4,0-22.4,10-22.4,22.4c0,12.4,10.1,22.4,22.4,22.4
		c12.4,0,22.4-10,22.4-22.4C534.1,968.2,524.1,958.2,511.7,958.2z M511.7,999.8c-10.6,0-19.2-8.6-19.2-19.2
		c0-10.6,8.6-19.2,19.2-19.2c10.6,0,19.2,8.6,19.2,19.2C530.9,991.2,522.3,999.8,511.7,999.8z"/>
	<path id="XMLID_2486_" class="st0" d="M735,787.9l0.6-0.5v-65.9l-14.2-22.3c1.3-1.7,2.2-3.8,2.2-6.1c0-5.4-4.4-9.7-9.7-9.7
		c-5.4,0-9.7,4.4-9.7,9.7c0,5.4,4.4,9.7,9.7,9.7c1.9,0,3.6-0.5,5.1-1.5l13.4,21.1v63.5L590,906.1l-0.2,0.2l-24.9,47.5
		c-0.8-0.2-1.6-0.3-2.4-0.3c-5.4,0-9.7,4.4-9.7,9.7c0,5.4,4.4,9.7,9.7,9.7c5.4,0,9.7-4.4,9.7-9.7c0-3.4-1.7-6.4-4.4-8.1l24.5-46.8
		L735,787.9z"/>
	<path id="XMLID_2485_" class="st0" d="M762.2,733.5l0-0.4l-10.5-22.3c2.5-1.8,4.2-4.7,4.2-8c0-5.4-4.4-9.7-9.7-9.7
		c-5.4,0-9.7,4.4-9.7,9.7c0,5.4,4.4,9.7,9.7,9.7c0.9,0,1.8-0.1,2.7-0.4l10.2,21.6l-2.5,60.3L720,830.4c-1.7-1.4-3.8-2.2-6.2-2.2
		c-5.4,0-9.7,4.4-9.7,9.7s4.4,9.7,9.7,9.7c5.4,0,9.7-4.4,9.7-9.7c0-1.9-0.5-3.6-1.4-5.1l37.4-37.4L762.2,733.5z"/>
	<path id="XMLID_2482_" class="st0" d="M993.1,475.8l-42-40.6l-43-12.9l3.3-27.8l25.6-31c1.4,0.8,3.1,1.3,4.9,1.3
		c5.4,0,9.7-4.4,9.7-9.7c0-5.4-4.4-9.7-9.7-9.7c-5.4,0-9.7,4.4-9.7,9.7c0,2.4,0.9,4.7,2.4,6.4l-26.2,31.7l-3.3,28.2l-27-8.1
		c0.1-0.4,0.1-0.8,0.1-1.2c0-5.4-4.4-9.7-9.7-9.7c-5.4,0-9.7,4.4-9.7,9.7c0,5.4,4.4,9.7,9.7,9.7c3.8,0,7.1-2.2,8.7-5.4l72.4,21.7
		l41,39.6l23.2,50.3v54.5l-37.3,98.4l-9.5-51.9l16.8-46.5l0.1-0.2l1.4-54.8l-18.4-38.1l-18-12.5c0.6-1.3,1-2.7,1-4.2
		c0-5.4-4.4-9.7-9.7-9.7c-5.4,0-9.7,4.4-9.7,9.7c0,5.4,4.4,9.7,9.7,9.7c2.7,0,5.2-1.1,6.9-2.9l17.3,12.1l17.7,36.6l-1.3,53.5
		L964.9,625l-32.5-64.2l-83.1-95.9l-54.6-84.4c3.7-2.1,6.3-6,6.3-10.6c0-6.7-5.4-12.1-12.1-12.1c-6.7,0-12.1,5.4-12.1,12.1
		c0,6.7,5.4,12.1,12.1,12.1c1,0,1.9-0.1,2.8-0.3l55,85l83.1,95.9l33.9,66.9l10.6,57.5l-0.7,36.2L957.7,763l-40.2,28.7l-5-52.4
		l20.9-11.8l8.1-40.4l0-32.7l-19-31.1c2.1-1.8,3.4-4.4,3.4-7.3c0-5.4-4.4-9.7-9.7-9.7s-9.7,4.4-9.7,9.7s4.4,9.7,9.7,9.7
		c1.3,0,2.5-0.3,3.6-0.7l18.6,30.3v31.3l-7.7,38.8l-19.2,10.8L882.4,686l-42.1-68.7l1.5-0.9l1.3-4.6l-16.7-28.7l-12.2,7.1l16.7,28.7
		l4.8,1l1.9-1.1l42.2,68.7l29.7,51.4l5.3,55.5l-21,59.2L842,896.8l-51.8,9.5h-119c-0.8-4.6-4.8-8.1-9.6-8.1c-5.4,0-9.7,4.4-9.7,9.7
		c0,5.4,4.4,9.7,9.7,9.7c4.8,0,8.8-3.5,9.6-8.1h119.3l52.9-9.7l52.5-43.9l0.3-0.3l21.3-59.9l42.8-30.6l16.3-41l0.1-0.3l0.7-36.7
		l39.3-103.8l0.1-0.3v-55.8l-23.6-51.2L993.1,475.8z M781.5,369.9c0-4,3.3-7.3,7.3-7.3c4,0,7.3,3.3,7.3,7.3c0,4-3.3,7.3-7.3,7.3
		C784.8,377.2,781.5,373.9,781.5,369.9z"/>
	<path id="XMLID_2479_" class="st0" d="M993.1,475.8l0.8-0.8l-42.2-40.8l-42.4-12.7l3.1-26.5l25.4-30.7l-0.9-0.8l-0.6,1
		c1.6,0.9,3.5,1.5,5.5,1.5c6,0,10.9-4.9,10.9-10.9c0-6-4.9-10.9-10.9-10.9c-6,0-10.9,4.9-10.9,10.9c0,2.7,1,5.2,2.7,7.1l0.9-0.8
		l-0.9-0.8l-26.4,31.9l-3.2,27.1l-25.6-7.7l-0.3,1.1l1.2,0.1c0.1-0.4,0.1-0.9,0.1-1.4c0-6-4.9-10.9-10.9-10.9
		c-6,0-10.9,4.9-10.9,10.9c0,6,4.9,10.9,10.9,10.9c4.3,0,8-2.5,9.8-6.1l-1.1-0.5l-0.3,1.1l72.1,21.7l40.7,39.3l23,49.8v54
		l-35.7,94.3l-8.7-47.4l16.7-46.2l0.1-0.2l0.1-0.2l1.4-55.3l-18.6-38.6l-18.2-12.7l-0.7,1l1.1,0.5c0.7-1.4,1.1-3,1.1-4.7
		c0-6-4.9-10.9-10.9-10.9c-6,0-10.9,4.9-10.9,10.9c0,6,4.9,10.9,10.9,10.9c3,0,5.8-1.3,7.8-3.3l-0.8-0.8l-0.7,1l17,11.9l17.4,36.1
		l-1.3,53.1L964.7,622l-31.3-61.9l-83.2-96l-54.5-84.3l-1,0.6l0.6,1c4.1-2.3,6.9-6.6,6.9-11.6c0-7.3-6-13.3-13.3-13.3
		c-7.3,0-13.3,6-13.3,13.3c0,7.3,6,13.3,13.3,13.3c1.1,0,2.1-0.1,3.1-0.4l-0.3-1.1l-1,0.6l55,85.1l83.1,95.8l33.8,66.6l10.5,57.2
		l-0.7,35.9l-15.6,39.3l-38.3,27.3l-4.7-49.6l20.7-11.7l8.2-41l0-33.2l-19.2-31.4l-1,0.6l0.8,0.9c2.3-2,3.8-4.9,3.8-8.2
		c0-6-4.9-10.9-10.9-10.9s-10.9,4.9-10.9,10.9c0,6,4.9,10.9,10.9,10.9c1.4,0,2.8-0.3,4.1-0.8l-0.4-1.1l-1,0.6l18.4,30v30.9
		l-7.6,38.2l-17.7,10l-28.5-49.3l-41.5-67.7l0.5-0.3l0.4-0.2l1.5-5.5l-17.6-30.1l-14.3,8.3L830,620l5.7,1.3l1.3-0.8l41.5,67.7
		l29.5,51.1l5.2,55L892.5,853l-51.1,42.7l-51.4,9.4H671.1v1.2l1.2-0.2c-0.9-5.2-5.3-9.1-10.7-9.1c-6,0-10.9,4.9-10.9,10.9
		c0,6,4.9,10.9,10.9,10.9c5.4,0,9.9-3.9,10.7-9.1l-1.2-0.2v1.2h119.4l53.3-9.8l52.8-44.1l0.3-0.3l0.2-0.2l21.3-59.8l42.8-30.6
		l16.4-41.3l0.1-0.3l0.1-0.2l0.7-36.7l39.2-103.6l0.1-0.3l0.1-0.2V527l-23.7-51.4l-0.1-0.3l-0.1-0.2l-0.2-0.2L993.1,475.8l-1.1,0.5
		l0.1,0.3l23.5,50.9v55.3l0,0.1l-39.4,104l-0.7,36.7l0,0.1l-16.2,40.7l-42.9,30.6l-21.3,59.9l-0.1,0.1l-52.3,43.7l-52.5,9.6H670.1
		l-0.2,1c-0.7,4-4.2,7.1-8.4,7.1c-4.7,0-8.5-3.8-8.5-8.5c0-4.7,3.8-8.5,8.5-8.5c4.2,0,7.7,3.1,8.4,7.1l0.2,1h120.1l52.2-9.6l52-43.5
		l21.2-59.7l-5.3-56L880.6,687l-42.8-69.7l-2.5,1.5l-3.8-0.8l-15.9-27.2l10.2-6l15.9,27.2l-1,3.6l-1.1,0.7l-1,0.6l42.8,69.7
		l29.6,51.3l20.7-11.7l7.9-39.5V655l-19.3-31.5l-0.9,0.4c-1,0.4-2.1,0.6-3.2,0.6c-4.7,0-8.5-3.8-8.5-8.5c0-4.7,3.8-8.5,8.5-8.5
		c4.7,0,8.5,3.8,8.5,8.5c0,2.6-1.1,4.9-2.9,6.4l-0.8,0.7l19.4,31.7l0,32.3l-7.9,39.8l-21.1,11.9l5.2,55.2l42.2-30.1l16-40.4
		l0.7-36.6L964.8,629l-34-67.1L847.6,466l-55.4-85.7l-0.8,0.2c-0.8,0.2-1.7,0.3-2.5,0.3c-3,0-5.7-1.2-7.7-3.2c-2-2-3.2-4.7-3.2-7.7
		c0-3,1.2-5.7,3.2-7.7c2-2,4.7-3.2,7.7-3.2c3,0,5.7,1.2,7.7,3.2c2,2,3.2,4.7,3.2,7.7c0,4.1-2.3,7.7-5.7,9.6L793,380l55.3,85.5
		l83.1,95.9l33.6,66.5l16.6-46l1.4-54l-17.9-37.2L946.8,478l-0.7,0.7c-1.6,1.6-3.7,2.6-6.1,2.6c-4.7,0-8.5-3.8-8.5-8.5
		c0-4.7,3.8-8.5,8.5-8.5c4.7,0,8.5,3.8,8.5,8.5c0,1.3-0.3,2.5-0.8,3.7l-0.4,0.9l18.5,12.9l18.1,37.5l-1.4,54.4l0,0.1l-16.9,46.8
		l10.4,56.3l38.9-102.6v-55L991.4,477L950,437l-73.6-22.1l-0.4,0.9c-1.4,2.8-4.3,4.8-7.7,4.8c-4.7,0-8.5-3.8-8.5-8.5
		c0-4.7,3.8-8.5,8.5-8.5c4.7,0,8.5,3.8,8.5,8.5c0,0.4,0,0.7-0.1,1.1l-0.1,1l29.3,8.8l3.4-29.2l26.6-32.2l-0.7-0.8
		c-1.3-1.5-2.1-3.4-2.1-5.6c0-4.7,3.8-8.5,8.5-8.5c4.7,0,8.5,3.8,8.5,8.5c0,4.7-3.8,8.5-8.5,8.5c-1.6,0-3-0.4-4.3-1.2l-0.9-0.5
		l-26.5,32l-3.4,29.1l43.7,13.1l41.8,40.4L993.1,475.8l-1.1,0.5L993.1,475.8z M781.5,369.9h1.2c0-3.4,2.8-6.1,6.1-6.1
		c3.4,0,6.1,2.8,6.1,6.1c0,3.4-2.8,6.1-6.1,6.1c-3.4,0-6.1-2.8-6.1-6.1H781.5h-1.2c0,4.7,3.8,8.5,8.5,8.5c4.7,0,8.5-3.8,8.5-8.5
		c0-4.7-3.8-8.5-8.5-8.5c-4.7,0-8.5,3.8-8.5,8.5H781.5z"/>
	<path id="XMLID_2478_" class="st0" d="M847.6,360.5l35,0.9l15.2-7.1c1.6,3.1,4.9,5.2,8.6,5.2c5.4,0,9.7-4.4,9.7-9.7
		c0-5.4-4.4-9.7-9.7-9.7c-5.4,0-9.7,4.4-9.7,9.7c0,0.5,0.1,1,0.1,1.5l-14.8,6.9l-33.7-0.9L796.9,336l-42.6-75.6
		c2.2-1.8,3.6-4.5,3.6-7.6c0-5.4-4.4-9.7-9.7-9.7c-5.4,0-9.7,4.4-9.7,9.7c0,5.4,4.4,9.7,9.7,9.7c1.2,0,2.3-0.2,3.3-0.6l43.1,76.5
		L847.6,360.5z"/>
	<path id="XMLID_2477_" class="st0" d="M870.5,224l-55.3-35.5l-55-8.8l-46.6,15c-1.8-2.2-4.5-3.6-7.6-3.6c-5.4,0-9.7,4.4-9.7,9.7
		c0,5.4,4.4,9.7,9.7,9.7c5.4,0,9.7-4.4,9.7-9.7c0-1.1-0.2-2.2-0.6-3.3l45.3-14.5l53.6,8.6l53.3,34.2V254L826,295.5
		c-1.4-0.9-3.1-1.4-4.9-1.4c-5.4,0-9.7,4.4-9.7,9.7c0,5.4,4.4,9.7,9.7,9.7c5.4,0,9.7-4.4,9.7-9.7c0-2.4-0.9-4.6-2.3-6.3l42.1-42.2
		V224z"/>
	<path id="XMLID_2476_" class="st0" d="M870.5,224l1.3-2L816,186.2l-56.1-9l-47.2,15.1l0.7,2.3l1.8-1.5c-2.2-2.7-5.6-4.5-9.4-4.5
		c-6.7,0-12.1,5.4-12.1,12.1c0,6.7,5.4,12.1,12.1,12.1c6.7,0,12.1-5.4,12.1-12.1c0-1.4-0.3-2.8-0.7-4.1l-2.2,0.8l0.7,2.3l44.8-14.4
		l52.6,8.4l51.8,33.3v26l-40.6,40.8l1.7,1.7l1.2-2c-1.8-1.1-3.9-1.7-6.1-1.7c-6.7,0-12.1,5.4-12.1,12.1c0,6.7,5.4,12.1,12.1,12.1
		c6.7,0,12.1-5.4,12.1-12.1c0-3-1.1-5.7-2.9-7.8l-1.8,1.5l1.7,1.7l42.8-42.9v-33.6l-1.1-0.7L870.5,224h-2.4v30.4l-42.9,43.1l1.4,1.7
		c1.1,1.3,1.8,2.9,1.8,4.8c0,4.1-3.3,7.3-7.4,7.4c-4.1,0-7.4-3.3-7.4-7.4c0-4.1,3.3-7.3,7.4-7.4c1.4,0,2.6,0.4,3.7,1l1.6,0.9
		l43.3-43.5v-30.6l-54.8-35.2l-54.7-8.8L712,196l0.8,2.3c0.3,0.8,0.4,1.6,0.4,2.5c0,4.1-3.3,7.3-7.4,7.4c-4.1,0-7.4-3.3-7.4-7.4
		c0-4.1,3.3-7.3,7.4-7.4c2.3,0,4.4,1.1,5.7,2.7l1,1.3l47.6-15.3l54,8.7l54.9,35.3L870.5,224h-2.4H870.5z"/>
	<polygon id="XMLID_2475_" class="st0" points="666,661.9 734.1,602.8 732.1,600.4 662.8,660.4 662.8,720.7 666,720.7 	"/>
	<path id="XMLID_2474_" class="st0" d="M539.2,537.5l19.5,28.3l12.3-5.3l-20.4-28.6l-4-1.2l-1.9,1l-8.8-11.4V404.9
		c4.6-0.8,8.1-4.8,8.1-9.6c0-5.4-4.4-9.7-9.7-9.7c-5.4,0-9.7,4.4-9.7,9.7c0,4.8,3.5,8.8,8.1,9.6v116.5l9.1,11.7l-1.1,0.5
		L539.2,537.5z"/>
	<path id="XMLID_2471_" class="st0" d="M534.3,284.9c-6.7,0-12.1,5.4-12.1,12.1c0,6.7,5.4,12.1,12.1,12.1s12.1-5.4,12.1-12.1
		c0-1-0.1-1.9-0.4-2.9l21.6-18.8l24.6,30.2v32.8l-23.9,20.5c-1.8-2.2-4.5-3.7-7.6-3.7c-5.4,0-9.7,4.4-9.7,9.7s4.4,9.7,9.7,9.7
		c5.4,0,9.7-4.4,9.7-9.7c0-1.1-0.2-2.2-0.5-3.2l25.6-21.9v-35.4L568,270.7L544.8,291C542.7,287.3,538.8,284.9,534.3,284.9z
		 M534.3,304.3c-4,0-7.3-3.3-7.3-7.3c0-4,3.3-7.3,7.3-7.3c4,0,7.3,3.3,7.3,7.3C541.6,301,538.3,304.3,534.3,304.3z"/>
	<path id="XMLID_2470_" class="st0" d="M719.1,357c-4.8,0-8.8,3.5-9.6,8.1H673l-29.4-39.8c0.7-1.3,1.1-2.8,1.1-4.4
		c0-5.4-4.4-9.7-9.7-9.7c-5.4,0-9.7,4.4-9.7,9.7c0,3.6,2,6.8,5,8.5L616.6,367l-38.2,16c-1.8-2.1-4.4-3.4-7.4-3.4
		c-5.4,0-9.7,4.4-9.7,9.7c0,5.4,4.4,9.7,9.7,9.7c5.4,0,9.7-4.4,9.7-9.7c0-1.2-0.2-2.4-0.7-3.5l39.1-16.4l14-38.9
		c0.6,0.1,1.2,0.2,1.8,0.2c2.6,0,4.9-1,6.6-2.6l29.9,40.3h38.1c0.8,4.6,4.8,8.1,9.6,8.1c5.4,0,9.7-4.4,9.7-9.7
		C728.8,361.4,724.5,357,719.1,357z"/>
	<path id="XMLID_2467_" class="st0" d="M728.8,386.9c-6.7,0-12.1,5.4-12.1,12.1c0,4.9,3,9.2,7.2,11.1l-11.5,34.2l-33.8,44.9
		l-58.9,30.1v18.4l14.5,27.5c-2,1.8-3.3,4.4-3.3,7.3c0,5.4,4.4,9.7,9.7,9.7c5.4,0,9.7-4.4,9.7-9.7c0-5.4-4.4-9.7-9.7-9.7
		c-1.3,0-2.6,0.3-3.7,0.7l-14-26.6v-15.7l57.5-29.4l0.3-0.2l34.5-45.9l11.7-34.8c0.6,0.1,1.2,0.2,1.9,0.2c6.7,0,12.1-5.4,12.1-12.1
		C740.9,392.3,735.5,386.9,728.8,386.9z M728.8,406.3c-4,0-7.3-3.3-7.3-7.3c0-4,3.3-7.3,7.3-7.3s7.3,3.3,7.3,7.3
		C736.1,403,732.8,406.3,728.8,406.3z"/>
	<path id="XMLID_2466_" class="st0" d="M748.3,450.1c0-5.4-4.4-9.7-9.7-9.7c-5.4,0-9.7,4.4-9.7,9.7c0,5.4,4.4,9.7,9.7,9.7
		c0.6,0,1.1-0.1,1.7-0.2l11.2,79.8l-75.6,37.4c-1.7-2.7-4.8-4.6-8.2-4.6c-5.4,0-9.7,4.4-9.7,9.7s4.4,9.7,9.7,9.7
		c5.4,0,9.7-4.4,9.7-9.7c0-0.8-0.1-1.5-0.3-2.2l77.9-38.6l-11.6-82.7C746.2,456.9,748.3,453.7,748.3,450.1z"/>
	<path id="XMLID_2465_" class="st0" d="M756.9,606.6l3.4-3.3v-33.2h-14.2v33.2l3.6,3.3h1.9v70.7l35.8,45.4l11,48l-9.5,43.8l-23.6,17
		c-1.8-2.1-4.4-3.4-7.4-3.4c-5.4,0-9.7,4.4-9.7,9.7s4.4,9.7,9.7,9.7c5.4,0,9.7-4.4,9.7-9.7c0-1.3-0.3-2.5-0.7-3.6l24.8-17.9
		l9.9-45.3l0.1-0.3l-11.3-49.1l-0.1-0.4l-35.6-45.1v-69.6H756.9z"/>
	<path id="XMLID_2464_" class="st0" d="M756.9,606.6l0.8,0.8l3.8-3.7v-34.9h-16.5v34.9l4.3,4h1.2v69.9l35.9,45.5l10.9,47.5
		l-9.4,43.1l-23.2,16.8l0.7,1l0.9-0.8c-2-2.3-4.9-3.8-8.2-3.8c-6,0-10.9,4.9-10.9,10.9c0,6,4.9,10.9,10.9,10.9
		c6,0,10.9-4.9,10.9-10.9c0-1.4-0.3-2.8-0.8-4.1l-1.1,0.4l0.7,1l25.1-18.2l9.9-45.8l0.1-0.4l0.1-0.3l-11.3-49.3l-0.1-0.3l-0.1-0.3
		l-35.5-45l0-68h0.9h0.5l0.3-0.3L756.9,606.6v-1.2h-2.1h-1.2v71.2l35.7,45.2l0,0.1l11.2,48.8l0,0.1l-9.8,44.9l-25.1,18.2l0.3,0.9
		c0.4,1,0.6,2.1,0.6,3.2c0,4.7-3.8,8.5-8.5,8.5c-4.7,0-8.5-3.8-8.5-8.5c0-4.7,3.8-8.5,8.5-8.5c2.6,0,4.9,1.1,6.5,3l0.7,0.8
		l24.8-17.9l9.7-44.5l-11.1-48.6l-35.7-45.3l0-71.5h-2.6l-2.9-2.7v-31.5h11.8v31.5l-3,3L756.9,606.6v-1.2V606.6z"/>
	<path id="XMLID_2460_" class="st0" d="M555.1,112.8c-6.7,0-12.1,5.4-12.1,12.1c0,6.7,5.4,12.1,12.1,12.1c4.3,0,8.1-2.3,10.2-5.7
		l88.9,43.7l27,128.1c-4.3,1.8-7.4,6.1-7.4,11.2c0,6.7,5.4,12.1,12.1,12.1c6.7,0,12.1-5.4,12.1-12.1c0-6.7-5.4-12.1-12.1-12.1
		c-0.6,0-1.1,0.1-1.6,0.1l-27.3-129.4l-90.4-44.4c0.3-1.1,0.5-2.3,0.5-3.6C567.2,118.2,561.8,112.8,555.1,112.8z M693.4,314.2
		c0,4-3.3,7.3-7.3,7.3c-4,0-7.3-3.3-7.3-7.3c0-4,3.3-7.3,7.3-7.3C690.1,306.9,693.4,310.2,693.4,314.2z M555.1,132.2
		c-4,0-7.3-3.3-7.3-7.3c0-4,3.3-7.3,7.3-7.3c4,0,7.3,3.3,7.3,7.3C562.5,128.9,559.2,132.2,555.1,132.2z"/>
	<path id="XMLID_2459_" class="st0" d="M570.4,168.4c0-5.4-4.4-9.7-9.7-9.7c-5.4,0-9.7,4.4-9.7,9.7c0,5.4,4.4,9.7,9.7,9.7l0.5,0
		l12.1,55.5l62.8,49c-0.8,1.4-1.2,3-1.2,4.6c0,5.4,4.4,9.7,9.7,9.7c5.4,0,9.7-4.4,9.7-9.7s-4.4-9.7-9.7-9.7c-2.5,0-4.8,1-6.6,2.6
		l-61.9-48.3l-11.9-54.4C567.8,175.9,570.4,172.4,570.4,168.4z"/>
	<path id="XMLID_2458_" class="st0" d="M878,572.3c5.4,0,9.7-4.4,9.7-9.7s-4.4-9.7-9.7-9.7c-1.6,0-3.1,0.4-4.4,1.1l-97.7-136.8
		l-52.2-151.6c3-1.6,5.1-4.9,5.1-8.5c0-5.4-4.4-9.7-9.7-9.7c-5.4,0-9.7,4.4-9.7,9.7c0,5.4,4.4,9.7,9.7,9.7c0.5,0,1.1-0.1,1.6-0.1
		L773,418.4l0.1,0.2l98,137.2c-1.7,1.8-2.8,4.1-2.8,6.8C868.3,568,872.7,572.3,878,572.3z"/>
	<path id="XMLID_2457_" class="st0" d="M848,571.4c5.4,0,9.7-4.4,9.7-9.7c0-5.4-4.4-9.7-9.7-9.7c-1.9,0-3.6,0.5-5.1,1.5L812,518.1
		l-43.6-66l-2.7,1.8l43.7,66l31.1,35.6c-1.4,1.7-2.2,3.8-2.2,6.2C838.3,567,842.6,571.4,848,571.4z"/>
	<path id="XMLID_2456_" class="st0" d="M779.1,658.5c-5.4,0-9.7,4.4-9.7,9.7c0,5.4,4.4,9.7,9.7,9.7c2,0,3.8-0.6,5.4-1.6l38.6,41.3
		l15.7,44.4l-9.4,46l-23.1,22.5c-1.7-1.4-3.9-2.3-6.3-2.3c-5.4,0-9.7,4.4-9.7,9.7s4.4,9.7,9.7,9.7c5.4,0,9.7-4.4,9.7-9.7
		c0-1.8-0.5-3.5-1.4-5l24-23.3l9.8-47.8l-16.2-45.9l-39.1-41.8c1.3-1.6,2-3.7,2-5.9C788.9,662.8,784.5,658.5,779.1,658.5z"/>
	<path id="XMLID_2455_" class="st0" d="M779.1,658.5v-1.2c-6,0-10.9,4.9-10.9,10.9c0,6,4.9,10.9,10.9,10.9c2.2,0,4.3-0.7,6-1.8
		l-0.7-1l-0.9,0.8l38.5,41.2l15.5,43.9l-9.3,45.3l-22.9,22.2l0.8,0.8l0.8-0.9c-1.9-1.6-4.4-2.6-7.1-2.6c-6,0-10.9,4.9-10.9,10.9
		c0,6,4.9,10.9,10.9,10.9c6,0,10.9-4.9,10.9-10.9c0-2-0.6-3.9-1.5-5.6l-1,0.6l0.8,0.8l24.3-23.6l9.9-48.5L827,715.3l-39.3-42
		l-0.9,0.8l0.9,0.7c1.4-1.8,2.3-4.1,2.3-6.6c0-6-4.9-10.9-10.9-10.9V658.5v1.2c4.7,0,8.5,3.8,8.5,8.5c0,2-0.7,3.7-1.8,5.2l-0.6,0.8
		l39.6,42.4l16,45.3l-9.6,47.1l-24.4,23.7l0.5,0.8c0.8,1.3,1.2,2.8,1.2,4.4c0,4.7-3.8,8.5-8.5,8.5c-4.7,0-8.5-3.8-8.5-8.5
		c0-4.7,3.8-8.5,8.5-8.5c2.1,0,4,0.8,5.5,2l0.8,0.7l24.2-23.5l9.5-46.6L824.2,717l-39.5-42.3l-0.8,0.6c-1.4,0.9-3,1.4-4.7,1.4
		c-4.7,0-8.5-3.8-8.5-8.5c0-4.7,3.8-8.5,8.5-8.5V658.5z"/>
	<path id="XMLID_2454_" class="st0" d="M699.6,885.9c4.8,0,8.8-3.5,9.6-8.1h79.5l39.8-23.9l48.6-49.6l5.4-51L863.2,702L809,635.6
		l-10.3-60.2l1.7-0.3l2.7-3.9l-6.3-32.6l-13.9,2.7l6.3,32.6l4.2,2.6l2.2-0.4l10.3,60.5l0.1,0.4l54.4,66.7l18.9,50l-5.2,49.1
		l-47.4,48.5l-38.9,23.4h-78.7c-0.8-4.6-4.8-8.1-9.6-8.1c-5.4,0-9.7,4.4-9.7,9.7C689.9,881.5,694.3,885.9,699.6,885.9z"/>
	<path id="XMLID_2453_" class="st0" d="M699.6,885.9v1.2c5.4,0,9.9-3.9,10.7-9.1l-1.2-0.2v1.2h79.9l40.2-24.2l49-50l5.5-51.7
		l-19.6-51.6L810.1,635l-10-58.7l0.6-0.1l0.5-0.1l3.3-4.7l-6.6-34.2l-16.2,3.1l6.6,34.3l5,3.1l1.5-0.3l10.1,59.4l0.1,0.4l0.1,0.3
		l54.5,66.8l18.8,49.6l-5.2,48.4l-47,48.1l-38.4,23.1h-78.3v1.2l1.2-0.2c-0.9-5.2-5.3-9.1-10.7-9.1c-6,0-10.9,4.9-10.9,10.9
		c0,6,4.9,10.9,10.9,10.9V885.9v-1.2c-4.7,0-8.5-3.8-8.5-8.5c0-4.7,3.8-8.5,8.5-8.5c4.2,0,7.7,3.1,8.4,7.1l0.2,1h80l39.3-23.6
		l47.8-48.9l5.3-49.8L861.5,703l-54.4-66.6l0-0.1l-10.5-61.7l-2.9,0.6l-3.3-2.1l-6-30.9l11.6-2.2l6,30.9l-2.1,3.1l-1.2,0.2l-1.1,0.2
		l10.5,61.6l54.3,66.5l19.2,50.8l-5.4,50.3l-48.2,49.2l-39.4,23.7h-80.2l-0.2,1c-0.7,4-4.2,7.1-8.4,7.1V885.9z"/>
	<path id="XMLID_2450_" class="st0" d="M543.1,951.9c5.4,0,9.7-4.4,9.7-9.7c0-3.2-1.6-6.1-4-7.8l20.3-40.4l118-110.8l0.4-0.4
		l9.9-48.9c0.9,0.2,1.7,0.3,2.7,0.3c6.7,0,12.1-5.4,12.1-12.1c0-6.7-5.4-12.1-12.1-12.1s-12.1,5.4-12.1,12.1c0,4.6,2.6,8.7,6.4,10.7
		l-9.8,48.4L566.5,892l-20.6,40.9c-0.9-0.3-1.9-0.4-2.9-0.4c-5.4,0-9.7,4.4-9.7,9.7C533.3,947.5,537.7,951.9,543.1,951.9z
		 M700,714.7c4,0,7.3,3.3,7.3,7.3c0,4-3.3,7.3-7.3,7.3s-7.3-3.3-7.3-7.3C692.7,717.9,696,714.7,700,714.7z"/>
	<path id="XMLID_2449_" class="st0" d="M634.9,808.4c5.4,0,9.7-4.4,9.7-9.7s-4.4-9.7-9.7-9.7c-5.4,0-9.7,4.4-9.7,9.7
		c0,2,0.6,3.9,1.6,5.4l-68.3,64.4c-1.6-1.2-3.7-2-5.9-2c-5.4,0-9.7,4.4-9.7,9.7c0,5.4,4.4,9.7,9.7,9.7c5.4,0,9.7-4.4,9.7-9.7
		c0-2-0.6-3.9-1.6-5.4l68.3-64.4C630.7,807.6,632.7,808.4,634.9,808.4z"/>
	<path id="XMLID_2446_" class="st0" d="M710.3,80.4c5.2-0.2,9.3-4.5,9.3-9.7c0-5.4-4.4-9.7-9.7-9.7s-9.7,4.4-9.7,9.7
		c0,4.4,2.9,8.1,6.9,9.3l-17.6,74.8l-132.8,60c-5.4-19.3-23.2-33.5-44.2-33.5c-21,0-38.8,14.2-44.2,33.5l-132.8-60L318,80
		c4-1.2,6.9-4.9,6.9-9.3c0-5.4-4.4-9.7-9.7-9.7c-5.4,0-9.7,4.4-9.7,9.7c0,5.2,4.2,9.5,9.3,9.7l18,76.6l134.7,60.9
		c-0.6,3-0.9,6.1-0.9,9.3c0,25.3,20.6,45.9,45.9,45.9c25.3,0,45.9-20.6,45.9-45.9c0-3.2-0.3-6.3-0.9-9.3L692.3,157L710.3,80.4z
		 M512.6,269.9c-23.6,0-42.7-19.2-42.7-42.7c0-23.6,19.2-42.7,42.7-42.7c23.6,0,42.7,19.2,42.7,42.7
		C555.3,250.7,536.1,269.9,512.6,269.9z"/>
	<path id="XMLID_2443_" class="st0" d="M710.3,80.4l0.1,2.4c6.5-0.2,11.6-5.5,11.6-12.1c0-6.7-5.4-12.1-12.1-12.1
		c-6.7,0-12.1,5.4-12.1,12.1c0,5.5,3.6,10.1,8.6,11.6l0.7-2.3l-2.3-0.5l-17.3,73.6l-131.7,59.5l1,2.2l2.3-0.6
		c-5.7-20.3-24.4-35.2-46.5-35.2c-22.1,0-40.7,14.9-46.5,35.2l2.3,0.6l1-2.2l-131.7-59.5l-17.3-73.6L318,80l0.7,2.3
		c5-1.5,8.6-6.1,8.6-11.6c0-6.7-5.4-12.1-12.1-12.1c-6.7,0-12.1,5.4-12.1,12.1c0,6.5,5.2,11.8,11.6,12.1l0.1-2.4l-2.3,0.5l18.3,77.8
		L466.6,220l1-2.2l-2.3-0.5c-0.7,3.2-1,6.4-1,9.8c0,26.6,21.7,48.3,48.3,48.3c26.6,0,48.3-21.7,48.3-48.3c0-3.3-0.3-6.6-1-9.8
		l-2.3,0.5l1,2.2l135.8-61.4l18.3-77.8L710.3,80.4l0.1,2.4L710.3,80.4l-2.3-0.5l-17.8,75.5l-135.4,61.2l0.4,1.9
		c0.6,2.8,0.9,5.8,0.9,8.8c0,12-4.9,22.9-12.8,30.8c-7.9,7.9-18.8,12.8-30.8,12.8c-12,0-22.9-4.9-30.8-12.8
		c-7.9-7.9-12.8-18.8-12.8-30.8c0-3,0.3-6,0.9-8.8l0.4-1.9l-135.4-61.2l-18.2-77.3l-1.8-0.1c-3.9-0.1-7.1-3.4-7.1-7.3
		c0-4.1,3.3-7.3,7.4-7.4c4.1,0,7.4,3.3,7.4,7.4c0,3.3-2.2,6.1-5.2,7l-2.1,0.6l18.4,78.1L469.9,218l0.7-2.6
		c5.2-18.3,22-31.8,41.9-31.8c19.9,0,36.8,13.5,41.9,31.8l0.7,2.6l136.3-61.6l18.4-78.1l-2.1-0.6c-3-0.9-5.2-3.7-5.2-7
		c0-4.1,3.3-7.3,7.4-7.4c4.1,0,7.4,3.3,7.4,7.4c0,4-3.1,7.2-7.1,7.3l-1.8,0.1l-0.4,1.8L710.3,80.4z M512.6,269.9v-2.4
		c-11.1,0-21.2-4.5-28.5-11.8c-7.3-7.3-11.8-17.4-11.8-28.5c0-11.1,4.5-21.2,11.8-28.5c7.3-7.3,17.4-11.8,28.5-11.8
		c11.1,0,21.2,4.5,28.5,11.8c7.3,7.3,11.8,17.4,11.8,28.5c0,11.1-4.5,21.2-11.8,28.5c-7.3,7.3-17.4,11.8-28.5,11.8V269.9v2.4
		c24.9,0,45.1-20.2,45.1-45.1c0-24.9-20.2-45.1-45.1-45.1c-24.9,0-45.1,20.2-45.1,45.1c0,24.9,20.2,45.1,45.1,45.1V269.9z"/>
	<path id="XMLID_2440_" class="st0" d="M512.6,262.4c19.6,0,35.6-16,35.6-35.6s-16-35.6-35.6-35.6c-19.6,0-35.6,16-35.6,35.6
		S493,262.4,512.6,262.4z M512.6,203.2c13,0,23.6,10.6,23.6,23.6c0,13-10.6,23.6-23.6,23.6c-13,0-23.6-10.6-23.6-23.6
		C489,213.8,499.6,203.2,512.6,203.2z"/>
	<path id="XMLID_2439_" class="st0" d="M431.1,42.8c5.4,0,9.7-4.4,9.7-9.7c0-5.4-4.4-9.7-9.7-9.7c-5.4,0-9.7,4.4-9.7,9.7
		c0,3.3,1.6,6.2,4.2,8L415,63.4l2.6,62.3l37.4,37.4c-0.9,1.5-1.4,3.2-1.4,5.1c0,5.4,4.4,9.7,9.7,9.7c5.4,0,9.7-4.4,9.7-9.7
		c0-5.4-4.4-9.7-9.7-9.7c-2.3,0-4.5,0.8-6.2,2.2l-36.4-36.4L418.2,64l10.2-21.6C429.3,42.7,430.2,42.8,431.1,42.8z"/>
	<path id="XMLID_2438_" class="st0" d="M431.1,42.8v2.4c6.7,0,12.1-5.4,12.1-12.1c0-6.7-5.4-12.1-12.1-12.1
		c-6.7,0-12.1,5.4-12.1,12.1c0,4.1,2.1,7.7,5.2,9.9l1.4-1.9l-2.1-1l-10.8,22.8l2.7,63.8l38.1,38.1l1.7-1.7l-2-1.2
		c-1.1,1.8-1.8,4-1.8,6.3c0,6.7,5.4,12.1,12.1,12.1c6.7,0,12.1-5.4,12.1-12.1c0-6.7-5.4-12.1-12.1-12.1c-2.9,0-5.6,1-7.7,2.8
		l1.5,1.8l1.7-1.7l-35.7-35.7l-2.5-58.8l9.9-21.1l-2.1-1l-0.6,2.3c1,0.3,2.2,0.5,3.3,0.5V42.8v-2.4c-0.7,0-1.4-0.1-2-0.3l-1.9-0.6
		l-11.3,23.9l2.6,61.8l38.6,38.6l1.7-1.4c1.3-1,2.9-1.7,4.7-1.7c4.1,0,7.4,3.3,7.4,7.4c0,4.1-3.3,7.3-7.4,7.4
		c-4.1,0-7.4-3.3-7.4-7.4c0-1.4,0.4-2.7,1.1-3.8l1-1.6L420,124.6l-2.6-60.8l11.1-23.6l-1.6-1.1c-1.9-1.3-3.2-3.5-3.2-6
		c0-4.1,3.3-7.3,7.4-7.4c4.1,0,7.4,3.3,7.4,7.4c0,4.1-3.3,7.3-7.4,7.4V42.8z"/>
	<path id="XMLID_2437_" class="st0" d="M592.9,42.8c-5.4,0-9.7-4.4-9.7-9.7c0-5.4,4.4-9.7,9.7-9.7c5.4,0,9.7,4.4,9.7,9.7
		c0,3.3-1.6,6.2-4.2,8L609,63.4l-2.6,62.3l-37.4,37.4c0.9,1.5,1.4,3.2,1.4,5.1c0,5.4-4.4,9.7-9.7,9.7c-5.4,0-9.7-4.4-9.7-9.7
		c0-5.4,4.4-9.7,9.7-9.7c2.3,0,4.5,0.8,6.2,2.2l36.4-36.4l2.5-60.3l-10.2-21.6C594.7,42.7,593.8,42.8,592.9,42.8z"/>
	<path id="XMLID_2436_" class="st0" d="M592.9,42.8v-2.4c-4.1,0-7.4-3.3-7.4-7.4c0-4.1,3.3-7.3,7.4-7.4c4.1,0,7.4,3.3,7.4,7.4
		c0,2.5-1.2,4.7-3.2,6l-1.6,1.1l11.1,23.6l-2.6,60.8l-38.1,38.1l1,1.6c0.7,1.1,1.1,2.4,1.1,3.8c0,4.1-3.3,7.3-7.4,7.4
		c-4.1,0-7.4-3.3-7.4-7.4c0-4.1,3.3-7.3,7.4-7.4c1.8,0,3.4,0.6,4.7,1.7l1.7,1.4l38.6-38.6l2.6-61.8l-11.3-23.9l-1.9,0.6
		c-0.7,0.2-1.3,0.3-2,0.3V42.8v2.4c1.2,0,2.3-0.2,3.3-0.5l-0.6-2.3l-2.1,1l9.9,21.1l-2.5,58.8L565.1,159l1.7,1.7l1.5-1.8
		c-2.1-1.7-4.8-2.8-7.7-2.8c-6.7,0-12.1,5.4-12.1,12.1c0,6.7,5.4,12.1,12.1,12.1c6.7,0,12.1-5.4,12.1-12.1c0-2.3-0.7-4.5-1.8-6.3
		l-2,1.2l1.7,1.7l38.1-38.1l2.7-63.8L600.6,40l-2.1,1l1.4,1.9c3.1-2.2,5.2-5.8,5.2-9.9c0-6.7-5.4-12.1-12.1-12.1
		c-6.7,0-12.1,5.4-12.1,12.1c0,6.7,5.4,12.1,12.1,12.1V42.8z"/>
	<path id="XMLID_2435_" class="st0" d="M502.6,226.5c0,5.4,4.4,9.7,9.7,9.7c5.4,0,9.7-4.4,9.7-9.7c0-4.8-3.5-8.8-8.1-9.6V91.7h2
		l3.6-3.3V55.2h-14.2v33.2l3.4,3.3h2V217C506.1,217.7,502.6,221.7,502.6,226.5z"/>
	<path id="XMLID_2434_" class="st0" d="M502.6,226.5h-2.4c0,6.7,5.4,12.1,12.1,12.1c6.7,0,12.1-5.4,12.1-12.1c0-6-4.4-11-10.1-11.9
		l-0.4,2.3h2.4V91.7h-2.4v2.4h2h0.9l5-4.6V52.8h-18.9v36.5l4.8,4.7h0.6V217h2.4l-0.4-2.3c-5.7,0.9-10.1,5.9-10.1,11.9H502.6h2.4
		c0-3.6,2.7-6.7,6.1-7.2l2-0.3V89.3h-3.4l-2-1.9V57.6h9.5v29.8l-2.2,2h-1.1h-2.4V219l2,0.3c3.5,0.6,6.2,3.6,6.1,7.2
		c0,4.1-3.3,7.3-7.4,7.4c-4.1,0-7.4-3.3-7.4-7.4H502.6z"/>
	<path id="XMLID_2433_" class="st0" d="M259.9,461.8c4.6-0.8,8.1-4.8,8.1-9.6c0-5.4-4.4-9.7-9.7-9.7c-5.4,0-9.7,4.4-9.7,9.7
		c0,4.8,3.5,8.8,8.1,9.6"/>
	<path id="XMLID_2432_" class="st0" d="M767.3,461.8c4.6-0.8,8.1-4.8,8.1-9.6c0-5.4-4.4-9.7-9.7-9.7c-5.4,0-9.7,4.4-9.7,9.7
		c0,4.8,3.5,8.8,8.1,9.6"/>
	<path id="XMLID_2431_" class="st0" d="M502,981.1c0,5.4,4.4,9.7,9.7,9.7c5.4,0,9.7-4.4,9.7-9.7c0-4.8-3.5-8.8-8.1-9.6v-87.5h2
		l3.6-3.3v-33.2h-14.2v33.2l3.4,3.3h2v87.5C505.5,972.3,502,976.3,502,981.1z"/>
	<polygon id="XMLID_2430_" class="st0" points="374.2,725.9 376.4,726.7 397.1,668.5 469.2,635 485,659.4 509.9,675.2 509.9,797.6 
		462.3,819.1 376,724.3 374.2,725.9 376.4,726.7 374.2,725.9 372.5,727.5 461.1,824.8 514.6,800.7 514.6,672.6 488.4,656 470.9,629 
		393.3,665.1 371.5,726.4 372.5,727.5 	"/>
	<polygon id="XMLID_2429_" class="st0" points="650.5,725.9 652.7,725.1 631.4,665.1 553.8,629 536.3,656 510.1,672.6 510.1,800.7 
		563.6,824.8 653.2,726.4 652.7,725.1 650.5,725.9 648.8,724.3 562.4,819.1 514.8,797.6 514.8,675.2 539.7,659.4 555.5,635 
		627.6,668.5 648.3,726.7 650.5,725.9 648.8,724.3 	"/>
	<path id="XMLID_2428_" class="st0" d="M459,325.7l-0.5,1l53.2,27.9l49.8-27.9l-1-2.2c0,0-0.5,0.2-1.5,0.5c-3.4,1.1-12,3.9-21.5,6.4
		c-9.4,2.5-19.7,4.7-26.1,4.7c-7.3,0-20.4-2.9-31.6-5.8c-5.6-1.4-10.7-2.9-14.4-4c-3.7-1.1-6-1.8-6-1.8l-0.9,2.2L459,325.7l-0.4,1.1
		c0,0,9.3,2.9,20.6,5.8c11.3,2.9,24.3,5.8,32.2,5.8c7.8,0,20.2-2.9,30.7-5.9c10.5-2.9,19.1-5.8,19.1-5.8l-0.4-1.1l-0.6-1l-48.7,27.3
		l-52-27.3L459,325.7l-0.4,1.1L459,325.7z"/>
	<path id="XMLID_2427_" class="st0" d="M495.1,663.2v30.9l-6.9,0.3c-22.4,13.4-61,38.6-70,40.5c-9,0.4-18.5-12-21.6-12.4
		c-3.1-0.4-2.5,4.1-2.5,4.1s18.9,27.2,21.4,28.8c2.5,1.6,7.2,1.6,10.6,0c3.4-1.6,44.6-31.4,85.5-30.8l-0.4-51.6L495.1,663.2z"/>
	<path id="XMLID_2426_" class="st0" d="M529.6,663.2v30.9l6.9,0.3c22.4,13.4,61,38.6,70,40.5c9,0.4,18.5-12,21.6-12.4
		c3.1-0.4,2.5,4.1,2.5,4.1s-18.9,27.2-21.4,28.8c-2.5,1.6-7.2,1.6-10.6,0c-3.4-1.6-44.6-31.4-85.5-30.8l0.4-51.6L529.6,663.2z"/>
	<polygon id="XMLID_2425_" class="st0" points="462.9,597.9 462.9,614.5 478.9,626.4 493.9,650.4 512.4,662.6 531,650.4 546,626.4 
		562,614.5 562,597.9 530,609.8 512.4,609.8 494.9,609.8 	"/>
	<path id="XMLID_2422_" class="st0" d="M451.7,581.8v38.3l18.8,14l15.2,24.2l26.8,17.7l26.8-17.7l15.2-24.2l18.8-14v-38.3L528,598.6
		h-31.1L451.7,581.8z M528.6,601.8l41.4-15.4v32.1l-18,13.4l-15.1,24.2l-24.4,16.1L488,656.1l-15.1-24.2l-18-13.4v-32.1l41.4,15.4
		H528.6z"/>
	<path id="XMLID_2421_" class="st0" d="M470,460.9c0,0-5.7,1.3-13.6-4.7c-11.1-8.6-18.1-33.3-28.3-41.1
		c-13.7-10.6-39.3-4.5-39.3-4.5s25.3-12.2,43.6,1.9c6.2,4.8,11.4,13.8,16.8,24.4c2.4-24-13.1-34.4-13.1-34.4s11.2,6.7,14.8,19.1
		c2.8,10,0.7,15.5,4.6,26.4C457.9,457.2,470,460.9,470,460.9z"/>
	<path id="XMLID_2420_" class="st0" d="M318.4,390.1c0,0,19.8,25.9,79.3,8.8c-6.2,5.9-27.7,16.2-27.7,16.2s42-4.4,53.5,4.5
		c10.8,8.3,16.6,33.7,27.7,42.3c7,5.4,16.2,6,16.2,6s-12.3,1.7-24.4-7.6c-10.5-8.1-12.3-27.7-23.4-36.3c-5.9-4.5-18.4-9.4-29.9-6.9
		c16.2-3.4,32.4,5.8,32.4,5.8c12.2,9.9,13.3,32.4,22.2,38.4c-7-1.9-14.9-1.2-20.8-1.4l-0.8,0c-7.1-0.3-13.7-1.2-20.6-6.6
		c-13.1-10.4-6.6-29-13.5-36.3c-13.5-0.6-25.9,0.3-25.9,0.3s20.9-10.8,23.3-13.9C333.1,416.3,318.4,390.1,318.4,390.1z"/>
	<path id="XMLID_2419_" class="st0" d="M554.9,460.9c0,0,5.7,1.3,13.6-4.7c11.1-8.6,18.1-33.3,28.3-41.1
		c13.7-10.6,39.3-4.5,39.3-4.5s-25.3-12.2-43.6,1.9c-6.2,4.8-11.4,13.8-16.8,24.4c-2.4-24,13.1-34.4,13.1-34.4s-11.2,6.7-14.8,19.1
		c-2.8,10-0.7,15.5-4.6,26.4C567,457.2,554.9,460.9,554.9,460.9z"/>
	<path id="XMLID_2418_" class="st0" d="M591,515.2c5.4,0,9.7-4.4,9.7-9.7c0-1.1-0.2-2.1-0.5-3.1l56-29.7l28.9-31.5
		c1.5,1,3.3,1.6,5.3,1.6c5.4,0,9.7-4.4,9.7-9.7s-4.4-9.7-9.7-9.7c-5.4,0-9.7,4.4-9.7,9.7c0,2.3,0.8,4.3,2.1,6l-28.5,31.1l-55.5,29.5
		c-1.8-2.3-4.6-3.8-7.7-3.8c-5.4,0-9.7,4.4-9.7,9.7S585.6,515.2,591,515.2z"/>
	<path id="XMLID_2417_" class="st0" d="M442.7,505.5c0-5.4-4.4-9.7-9.7-9.7c-3.1,0-5.9,1.5-7.7,3.8l-55.5-29.5L341.3,439
		c1.3-1.7,2.1-3.7,2.1-6c0-5.4-4.4-9.7-9.7-9.7c-5.4,0-9.7,4.4-9.7,9.7s4.4,9.7,9.7,9.7c2,0,3.8-0.6,5.3-1.6l28.9,31.5l56,29.7
		c-0.3,1-0.5,2-0.5,3.1c0,5.4,4.4,9.7,9.7,9.7C438.4,515.2,442.7,510.8,442.7,505.5z"/>
	<path id="XMLID_2413_" class="st0" d="M706.5,390.1c0,0-19.8,25.9-79.3,8.8c6.2,5.9,27.7,16.2,27.7,16.2s-42-4.4-53.5,4.5
		c-10.8,8.3-16.6,33.7-27.7,42.3c-7,5.4-16.2,6-16.2,6s12.3,1.7,24.4-7.6c10.5-8.1,12.3-27.7,23.4-36.3c5.9-4.5,18.4-9.4,29.9-6.9
		c-16.2-3.4-32.4,5.8-32.4,5.8c-12.2,9.9-13.3,32.4-22.2,38.4c7-1.9,14.9-1.2,20.8-1.4l0.8,0c7.1-0.3,13.7-1.2,20.6-6.6
		c13.1-10.4,6.6-29,13.5-36.3c13.5-0.6,25.9,0.3,25.9,0.3s-20.9-10.8-23.3-13.9C691.7,416.3,706.5,390.1,706.5,390.1z"/>
</g>
<g>
</g>
<g>
</g>
<g>
</g>
<g>
</g>
<g>
</g>
<g>
</g>
<g>
</g>
<g>
</g>
<g>
</g>
<g>
</g>
<g>
</g>
<g>
</g>
<g>
</g>
<g>
</g>
<g>
</g>
</svg>
